<svg width="720" height="808" viewBox="0 0 720 808" fill="none" xmlns="http://www.w3.org/2000/svg">
<path d="M229.517 558C229.517 696.071 341.446 808 479.517 808L719.517 808L719.517 92L474.517 92L249.517 92.0001C238.471 92.0001 229.517 100.954 229.517 112L229.517 558Z" fill="url(#paint0_linear_180_695)"/>
<path d="M556.517 455C556.517 593.071 444.588 705 306.517 705L166.517 705C149.949 705 136.517 691.569 136.517 675L136.517 122C136.517 105.431 149.949 92 166.517 92L346.517 92L536.517 92.0001C547.563 92.0001 556.517 100.954 556.517 112L556.517 455Z" fill="#C4C4C4"/>
<path fill-rule="evenodd" clip-rule="evenodd" d="M612.324 160.259C612.71 160.78 613.104 161.295 613.498 161.81C614.398 162.986 615.298 164.162 616.11 165.424C616.182 165.534 616.256 165.646 616.33 165.759C616.991 166.762 617.731 167.884 617.676 169.123C617.511 172.893 619.332 174.842 621.383 176.676C623.739 178.779 626.106 180.867 628.475 182.957L628.475 182.957L628.476 182.958L628.476 182.958L628.477 182.958C630.923 185.117 633.371 187.276 635.81 189.455C636.675 190.227 637.484 191.087 638.137 191.781C638.354 192.011 638.553 192.223 638.732 192.407L633.567 199.215L638.413 205.519L642.871 203.452C643.502 200.573 644.022 198.219 644.618 195.534C643.311 194.39 641.995 193.254 640.679 192.117C633.458 185.882 626.209 179.623 620.096 171.931L629.131 177.55C629.795 177.176 630.747 176.68 631.633 176.219L631.733 176.167L644.774 184.152C645.689 179.676 643.95 177.914 642.327 176.269C641.89 175.827 641.463 175.394 641.097 174.918C639.825 173.261 638.398 171.767 636.769 170.06C635.992 169.247 635.169 168.385 634.295 167.434L637.602 168.032C631.13 159.011 622.681 152.628 614.05 146.179C613.781 146.724 613.541 147.214 613.313 147.679L613.31 147.685C613.132 148.048 612.961 148.397 612.79 148.745C612.493 149.647 612.198 150.545 611.905 151.449C611.786 151.974 611.645 152.507 611.504 153.042L611.504 153.042L611.504 153.042L611.504 153.043L611.504 153.043L611.504 153.043L611.504 153.044L611.504 153.044L611.503 153.044C610.779 155.787 610.049 158.553 612.324 160.259ZM435.967 79.6077C431.121 80.4977 426.569 79.5655 423.015 76.9552C421.26 75.7178 419.239 74.8819 417.217 74.0457C416.335 73.681 415.453 73.3162 414.593 72.918L416.047 75.9477L416.343 76.1401L416.828 76.4561L416.828 76.4564C417.626 76.9762 418.425 77.4971 419.236 78.0152L419.479 78.1709C423.368 80.6652 427.26 83.1606 429.7 87.5253C435.258 87.2931 439.085 90.1224 443.027 93.0361C443.808 93.6131 444.593 94.1933 445.396 94.7538C442.31 97.7874 440.323 97.8305 438.367 96.0911C436.443 94.3828 434.412 92.8253 432.375 91.2634C431.521 90.6087 430.667 89.9533 429.818 89.2856C428.974 88.8744 428.129 88.4641 427.284 88.0538C425.592 87.2326 423.9 86.4114 422.214 85.5825C420.558 84.771 418.898 83.9676 417.237 83.1642C413.05 81.1382 408.862 79.1122 404.755 76.9574C400.887 74.9263 397.166 72.6327 393.447 70.3403C393.174 70.1717 392.9 70.0032 392.627 69.8347C392.267 69.6109 392.09 69.0935 391.913 68.5761C391.837 68.3546 391.761 68.133 391.671 67.9345C392.744 68.2003 393.826 68.4464 394.908 68.6926L394.908 68.6927L394.909 68.6928L394.909 68.6928L394.909 68.6929L394.91 68.693L394.91 68.6931L394.91 68.6932L394.911 68.6933L394.911 68.6933L394.911 68.6934C397.398 69.2591 399.886 69.8251 402.264 70.6295C405.531 71.7314 408.713 73.0176 411.894 74.3034L411.895 74.3038L411.896 74.3041L411.897 74.3043L411.897 74.3046L411.898 74.3049L411.899 74.3051L411.899 74.3054L411.9 74.3057L411.901 74.3059L411.901 74.3062C413.279 74.8628 414.656 75.4193 416.039 75.9607L414.585 72.931L388.223 63.0466L388.182 62.9874L384.8 62.1931C384.343 63.2824 383.904 64.3327 383.47 65.3725C382.52 67.6457 381.591 69.8684 380.54 72.3376C381.117 72.5763 381.682 72.8738 382.249 73.1724C383.498 73.8302 384.757 74.4931 386.172 74.5434C392.638 74.7823 397.527 77.8356 402.262 81.4046C403.688 82.4761 405.301 83.2803 406.914 84.085C407.716 84.4849 408.518 84.885 409.297 85.318C410.869 86.1931 412.426 87.0941 413.982 87.995C419.539 91.2113 425.093 94.4264 431.331 96.4585C432.851 96.9539 434.142 97.9416 435.439 98.9331C436.408 99.6748 437.38 100.419 438.453 100.96C444.13 103.824 449.862 106.585 455.595 109.347L455.6 109.35C457.818 110.418 460.036 111.486 462.251 112.561C463.982 115.472 466.78 116.751 469.591 118.036C471.646 118.975 473.708 119.918 475.364 121.503C476.817 122.893 478.788 123.601 480.768 124.311C481.846 124.699 482.926 125.087 483.927 125.586C485.808 126.521 487.66 127.511 489.512 128.5L489.512 128.501L489.513 128.501L489.513 128.501L489.514 128.501L489.514 128.501C492.397 130.042 495.281 131.583 498.271 132.916C500.237 133.795 502.323 134.446 504.409 135.097C506.291 135.685 508.172 136.272 509.967 137.027C511.773 137.784 513.39 138.921 515 140.054L515.001 140.055L515.001 140.055L515.002 140.055L515.002 140.056L515.003 140.056L515.003 140.056L515.004 140.057C515.475 140.389 515.946 140.72 516.421 141.041C516.989 141.433 517.498 141.896 518.007 142.358C519.3 143.531 520.586 144.699 522.794 144.681C524.052 144.67 524.807 145.578 525.608 146.541C526.451 147.555 527.344 148.631 528.93 148.761C530.895 148.919 532.609 149.956 534.324 150.994C535.078 151.45 535.833 151.906 536.608 152.287C536.876 152.42 537.166 152.529 537.456 152.638C538.764 153.129 540.065 153.618 539.255 156.263C539.138 156.646 540.288 157.272 540.944 157.62C542.581 158.48 544.24 159.303 545.898 160.126C546.513 160.431 547.127 160.735 547.739 161.042L543.81 156.833L544.519 155.773L554.782 161.159L554.782 161.159L544.532 155.781L543.823 156.841L547.752 161.05L552.433 163.367L552.434 163.366C554.156 164.005 555.845 164.701 557.536 165.398C560.215 166.501 562.897 167.606 565.716 168.488C568.78 169.448 571.411 171.4 574.045 173.354C575.275 174.266 576.506 175.18 577.782 175.992C582.474 178.946 587.198 181.848 591.959 184.684C592.791 185.123 593.785 185.236 594.821 185.011C598.245 184.247 600.766 185.641 602.933 187.481C609.381 192.944 615.715 198.588 621.987 204.29C625.925 207.868 626.845 207.582 629.836 201.205L628.462 195.974L633.538 199.203L638.703 192.395C638.502 192.189 638.278 191.952 638.036 191.695C637.393 191.013 636.617 190.19 635.782 189.443C633.271 187.198 630.747 184.972 628.221 182.744C625.931 180.723 623.639 178.702 621.354 176.664C619.304 174.83 617.482 172.881 617.647 169.111C617.702 167.873 616.963 166.75 616.302 165.748C616.227 165.634 616.153 165.522 616.082 165.412C615.269 164.15 614.369 162.974 613.469 161.798C613.075 161.283 612.681 160.769 612.295 160.247C612.191 160.306 612.074 160.389 611.958 160.472C611.712 160.647 611.467 160.822 611.342 160.765L611.135 160.673C605.969 158.385 600.804 156.099 599.37 149.117C599.2 148.29 598.807 147.583 598.414 146.874C598.261 146.598 598.108 146.323 597.967 146.04C596.474 148.035 595.166 148.313 593.596 147.062C591.715 145.565 589.779 144.147 587.843 142.729C585.832 141.256 583.821 139.783 581.873 138.222C576.761 134.118 571.737 129.893 566.8 125.545C566.085 124.913 565.649 123.919 565.212 122.923C565.008 122.459 564.804 121.995 564.572 121.566L564.623 119.677L555.739 111.858C555.577 112.006 555.416 112.153 555.254 112.299L555.254 112.3L555.253 112.3L555.098 112.441C554.988 112.541 554.878 112.642 554.768 112.743L556.829 117.423C548.107 108.448 537.081 102.117 526.035 95.7747C524.885 95.1144 523.735 94.454 522.587 93.7906C511.584 87.4276 500.422 81.3138 489.046 75.6012C484.165 73.1538 479.135 70.9784 474.105 68.8032C469.481 66.8035 464.857 64.8038 460.351 62.5932C456.353 60.6436 452.57 58.3046 448.787 55.9657C447.027 54.8775 445.267 53.7894 443.486 52.7404C442.865 52.374 442.225 52.0391 441.585 51.7041C441.246 51.5268 440.907 51.3495 440.571 51.1675L426.639 42.7491L417.077 37.186C417.893 40.4494 426.248 46.4504 431.016 48.239L435.066 51.8083L435.09 51.8254C435.554 52.1531 435.949 52.432 436.293 52.6593C435.942 52.4277 435.538 52.1426 435.062 51.8063L435.06 51.8044C434.129 51.4582 433.195 51.1158 432.262 50.7735L432.262 50.7734L432.261 50.7732L432.261 50.7731L432.26 50.773L432.26 50.7728L432.26 50.7727L432.259 50.7725C429.943 49.9229 427.625 49.0728 425.341 48.1613C424.121 47.6758 422.965 47.0632 421.811 46.4512C421.417 46.2426 421.024 46.034 420.628 45.8306L424.06 55.5597L428.383 59.1789C428.805 59.391 429.221 59.6241 429.639 59.8581L429.639 59.8584L429.64 59.8586L429.64 59.8589L429.641 59.8591L429.641 59.8594L429.642 59.8596L429.642 59.8599C430.575 60.3818 431.516 60.9085 432.542 61.2194C433.676 61.563 433.665 62.8312 433.655 64.0777C433.642 65.5217 433.63 66.9365 435.399 66.8506C437.997 66.7073 439.264 68.4623 440.557 70.2519L440.65 70.3806C442.159 70.9259 443.66 71.4905 445.161 72.0552L445.161 72.0555L445.162 72.0557C448.542 73.3271 451.922 74.5987 455.398 75.6508C458.947 76.7263 462.264 78.2548 465.58 79.7831C467.542 80.687 469.503 81.591 471.512 82.401C471.831 82.5293 472.151 82.6574 472.47 82.7855C476.314 84.3267 480.186 85.8788 483.644 88.079C491.154 92.8699 498.408 98.0721 505.653 103.275C511.993 107.83 518.243 112.518 524.402 117.337C526.127 118.693 527.677 120.293 529.224 121.89C529.942 122.631 530.659 123.371 531.392 124.086L530.547 125.265L520.64 120.04L505.467 112.057L506.283 114.587C509.946 117.1 513.828 119.267 517.712 121.435L517.713 121.435L517.713 121.435L517.713 121.436L517.714 121.436L517.714 121.436C523.758 124.809 529.81 128.187 535.063 132.883L533.026 133.051C533.016 133.065 533.006 133.079 532.996 133.093C531.248 132.005 529.503 130.92 527.732 129.878C520.468 125.655 513.196 121.438 505.903 117.263C505.163 116.839 504.333 116.564 503.504 116.289C503.118 116.161 502.731 116.033 502.354 115.89L502.354 115.89L481.82 104.524C482.033 104.86 482.244 105.198 482.454 105.536C484.257 108.428 486.059 111.319 489.086 112.831C489.855 113.19 490.625 113.55 491.394 113.91L491.401 113.914L491.408 113.917C494.492 115.361 497.577 116.805 500.697 118.179C501.155 118.386 501.736 118.357 502.317 118.328C502.578 118.315 502.84 118.302 503.09 118.311L503.09 118.31C504.049 118.811 505.009 119.311 505.97 119.81L505.973 119.812C507.913 120.82 509.852 121.829 511.784 122.853C512.114 123.027 512.471 123.174 512.828 123.322C513.677 123.674 514.53 124.027 515.036 124.726C517.468 128.051 521.052 129.393 524.633 130.733C526.985 131.614 529.336 132.494 531.358 133.935C531.508 134.028 531.766 133.963 532.025 133.897C532.144 133.867 532.263 133.836 532.372 133.821L532.387 133.807L532.41 133.785L540.73 139.53C536.82 140.37 534.745 139.41 532.701 138.186C532.375 137.992 532.049 137.795 531.723 137.599L531.722 137.598L531.721 137.597L531.72 137.597C529.468 136.239 527.199 134.872 524.693 134.052C522.959 133.479 521.108 133.13 519.262 132.781C516.48 132.256 513.709 131.733 511.367 130.453C509.654 129.519 507.898 128.65 506.14 127.78L506.139 127.779L506.138 127.779L506.138 127.779L506.137 127.778L506.136 127.778L506.136 127.778L506.135 127.777C500.529 125.002 494.905 122.218 490.63 117.334C490.273 117.046 489.872 116.823 489.437 116.669C489.227 117.482 489.052 118.165 488.683 119.623L484.49 115.19C486.396 115.931 487.867 115.237 489.067 112.867C486.046 111.374 484.252 108.491 482.458 105.609C482.24 105.259 482.022 104.908 481.802 104.56L475.992 101.907C475.581 101.864 475.145 101.862 474.71 101.86C473.778 101.856 472.847 101.852 472.158 101.444C461.349 95.0056 450.596 88.4823 439.844 81.9591L439.84 81.9569C438.549 81.1738 437.258 80.3907 435.967 79.6077ZM598.041 145.811C598.008 145.835 597.975 145.859 597.941 145.884L597.893 145.886C597.917 145.938 597.942 145.989 597.967 146.04C598.004 145.991 598.041 145.941 598.078 145.889L598.117 145.887L598.041 145.811ZM598.041 145.811C599.734 144.598 600.896 144.78 601.513 146.601C601.901 147.902 602.382 149.144 602.951 150.317C604.493 153.215 607.197 152.542 609.898 151.869C610.566 151.703 611.234 151.536 611.884 151.424C612.178 150.52 612.472 149.623 612.769 148.721C612.193 148.439 611.615 148.161 611.036 147.884L611.035 147.883L611.035 147.883L611.034 147.883L611.033 147.882L611.033 147.882L611.032 147.882L611.032 147.882L611.031 147.881L611.03 147.881L611.03 147.881L611.029 147.88L611.029 147.88C609.797 147.289 608.564 146.697 607.354 146.067C604.402 144.525 601.787 142.475 599.167 140.421C595.806 137.785 592.438 135.143 588.338 133.562C585.42 132.434 582.936 130.418 580.45 128.399C579.199 127.383 577.947 126.367 576.639 125.463C576.174 125.144 575.549 125.069 574.924 124.994C574.668 124.963 574.411 124.933 574.165 124.885C571.654 122.008 568.895 119.566 564.644 119.702L564.592 121.591L574.373 126.257C575.008 126.931 575.641 127.609 576.273 128.286C578.359 130.519 580.443 132.751 582.618 134.873C582.74 134.993 582.862 135.113 582.985 135.234L583.056 135.304L583.056 135.305L583.057 135.305L583.057 135.306C584.499 136.729 585.994 138.205 587.824 138.886C591.818 140.369 595.074 142.835 598.041 145.811ZM561.04 127.85L561.037 127.854C560.954 127.961 560.87 128.068 560.787 128.176C558.842 127.024 556.879 125.897 554.917 124.771L554.917 124.771L554.916 124.77L554.916 124.77L554.915 124.77L554.915 124.77C550.578 122.28 546.242 119.791 542.085 117.024C537.009 113.643 532.017 110.133 527.024 106.624C521.993 103.087 516.961 99.5502 511.846 96.1454C508.959 94.2224 505.874 92.6097 502.788 90.9967C500.935 90.0285 499.083 89.0602 497.273 88.0246C493.881 86.0819 490.53 84.0707 486.937 81.9144C485.228 80.8884 483.463 79.8295 481.614 78.7296C485.607 77.6112 488.19 77.6324 490.402 79.4583C492.255 80.9395 494.232 82.245 496.317 83.3658C498.992 84.8517 501.705 86.2759 504.419 87.7001C509.597 90.4183 514.776 93.1362 519.682 96.2821C529.719 102.723 539.398 109.746 549.019 116.828C552.02 119.031 554.795 121.591 557.569 124.151C558.802 125.289 560.034 126.426 561.287 127.532C561.25 127.579 561.213 127.627 561.176 127.675C561.131 127.733 561.085 127.792 561.04 127.85ZM561.58 136.024C560.639 135.439 559.555 135.058 558.272 134.962C558.272 134.962 558.272 134.962 558.272 134.962L558.265 134.958C559.553 135.056 560.639 135.438 561.58 136.024ZM548.95 139.863C548.721 140.273 548.493 140.683 548.268 141.096C544.886 140.389 542.2 138.16 540.732 134.842L548.95 139.863ZM505.44 112.1L506.256 114.63C498.827 110.722 491.385 106.833 483.933 102.962C481.876 101.89 479.799 100.854 477.721 99.818C476.678 99.2979 475.636 98.7777 474.595 98.253C469.441 95.4355 464.294 92.6086 459.154 89.7723C456.467 88.292 453.781 86.8087 451.094 85.3253L451.093 85.3246C446.273 82.6632 441.453 80.0015 436.624 77.3568C436.173 77.2114 435.686 77.1496 435.181 77.1735C433.348 76.2332 431.513 75.2965 429.677 74.3597C425.991 72.4788 422.305 70.5975 418.639 68.6863C406.66 62.4128 394.676 56.1479 382.686 49.8917L382.681 49.8691C381.372 49.3688 380.062 48.8796 378.752 48.3906L378.751 48.3905L378.751 48.3903L378.751 48.3901L378.75 48.39L378.75 48.3898L378.749 48.3896L378.749 48.3895L378.749 48.3893L378.748 48.3892L378.748 48.389L378.747 48.3888C375.458 47.1606 372.171 45.9337 368.909 44.5351C366.955 43.6973 364.875 43.1119 362.773 42.52C359.959 41.7281 357.105 40.9247 354.456 39.49C354.809 39.1591 355.082 38.8784 355.292 38.6612L355.294 38.6599L355.294 38.6595C355.624 38.319 355.803 38.1349 355.906 38.1585C364.385 39.9662 372.858 41.786 381.325 43.618L381.331 43.6415C383.057 44.3807 384.788 45.111 386.519 45.8411C391.335 47.8731 396.15 49.9044 400.866 52.1268C405.235 54.1897 409.509 56.4307 413.784 58.6718L413.784 58.672L413.784 58.6722L413.785 58.6724L413.785 58.6726L413.785 58.6727L413.786 58.6729L413.786 58.6731C415.663 59.6571 417.539 60.6411 419.424 61.61L419.427 61.6113L417.003 57.006C419.488 56.6005 420.977 57.1846 421.586 59.2564C421.828 60.0694 421.977 60.9394 422.127 61.8089C422.191 62.184 422.255 62.5589 422.327 62.9291L428.942 66.5393L428.946 66.5409L427.269 62.7186L429.876 61.4045L428.382 59.2023C428.808 59.417 429.223 59.6497 429.639 59.8823L429.64 59.8826C430.571 60.4036 431.502 60.9242 432.541 61.2428C433.675 61.5864 433.664 62.8546 433.654 64.101C433.641 65.5451 433.629 66.9599 435.398 66.8739C438.003 66.7426 439.278 68.5067 440.579 70.3067L440.649 70.404L442.101 73.4507L442.098 73.4487C442.217 76.9565 444.175 78.3548 446.651 79.6844C462.148 87.9794 477.564 96.4147 492.981 104.85L492.982 104.851L492.996 104.858C496.518 106.786 500.041 108.713 503.565 110.639C504.227 111.072 504.854 111.56 505.44 112.1ZM420.624 45.852L424.056 55.5811C421.366 55.6674 419.548 54.9866 420.295 51.0867C420.489 50.0549 419.61 48.7338 418.808 48.1747C416.35 46.4117 413.752 44.8621 411.029 43.5349C404.348 40.3964 397.632 37.3278 390.916 34.2596L390.914 34.2588C387.479 32.6895 384.045 31.1203 380.615 29.542C380.345 29.4167 380.053 29.3205 379.754 29.2225C378.583 28.8376 377.326 28.4246 377.033 26.1132C377.456 26.1562 377.829 26.1734 378.163 26.1889C378.777 26.2172 379.258 26.2395 379.672 26.4036C381.482 27.1057 383.305 27.7854 385.128 28.4653C389.916 30.2511 394.706 32.0375 399.274 34.2304C404.376 36.6675 409.289 39.4558 414.201 42.2438C416.337 43.4563 418.473 44.6686 420.624 45.852Z" fill="#F28C22"/>
<path fill-rule="evenodd" clip-rule="evenodd" d="M265.324 713.259C265.71 713.78 266.104 714.295 266.498 714.81C267.398 715.986 268.298 717.162 269.11 718.424C269.182 718.534 269.256 718.646 269.33 718.759C269.991 719.762 270.731 720.884 270.676 722.123C270.511 725.893 272.332 727.842 274.383 729.676C276.739 731.779 279.106 733.867 281.475 735.957L281.475 735.957L281.476 735.958L281.476 735.958L281.477 735.958C283.923 738.117 286.371 740.276 288.81 742.455C289.675 743.227 290.484 744.087 291.137 744.781C291.354 745.011 291.553 745.223 291.732 745.407L286.567 752.215L291.413 758.519L295.871 756.452C296.502 753.573 297.022 751.219 297.618 748.534C296.311 747.39 294.995 746.254 293.679 745.117C286.458 738.882 279.209 732.623 273.096 724.931L282.131 730.55C282.795 730.176 283.747 729.68 284.633 729.219L284.733 729.167L297.774 737.152C298.689 732.676 296.95 730.914 295.327 729.269C294.89 728.827 294.463 728.394 294.097 727.918C292.825 726.261 291.398 724.767 289.769 723.06C288.992 722.247 288.169 721.385 287.295 720.434L290.602 721.032C284.13 712.011 275.681 705.628 267.05 699.179C266.781 699.724 266.541 700.214 266.313 700.679L266.31 700.685C266.132 701.048 265.961 701.397 265.79 701.745C265.493 702.647 265.198 703.545 264.905 704.449C264.786 704.974 264.645 705.507 264.504 706.042L264.504 706.042L264.504 706.042L264.504 706.043L264.504 706.043L264.504 706.043L264.504 706.044L264.504 706.044L264.503 706.044C263.779 708.787 263.049 711.553 265.324 713.259ZM88.9673 632.608C84.121 633.498 79.569 632.565 76.0148 629.955C74.2605 628.718 72.2391 627.882 70.2172 627.046C69.3352 626.681 68.4531 626.316 67.593 625.918L69.0471 628.948L69.3429 629.14L69.8277 629.456L69.8283 629.456C70.6258 629.976 71.4251 630.497 72.2363 631.015L72.479 631.171C76.3684 633.665 80.2596 636.161 82.7005 640.525C88.2575 640.293 92.0851 643.122 96.027 646.036C96.8075 646.613 97.5926 647.193 98.3964 647.754C95.3103 650.787 93.3234 650.83 91.3666 649.091C89.4429 647.383 87.4119 645.825 85.375 644.263C84.5214 643.609 83.6666 642.953 82.8184 642.286C81.9738 641.874 81.1287 641.464 80.2836 641.054C78.592 640.233 76.9004 639.411 75.2136 638.582C73.5581 637.771 71.8975 636.968 70.237 636.164C66.0496 634.138 61.8622 632.112 57.7549 629.957C53.8867 627.926 50.1661 625.633 46.4474 623.34C46.174 623.172 45.9005 623.003 45.6269 622.835C45.2672 622.611 45.0901 622.094 44.913 621.576C44.8371 621.355 44.7612 621.133 44.6711 620.934C45.7437 621.2 46.8256 621.446 47.9078 621.693L47.9082 621.693L47.9086 621.693L47.9089 621.693L47.9093 621.693L47.9096 621.693L47.91 621.693L47.9103 621.693L47.9107 621.693L47.9111 621.693L47.9114 621.693C50.3981 622.259 52.8859 622.825 55.2643 623.629C58.5308 624.731 61.7132 626.018 64.8945 627.303L64.8955 627.304L64.8961 627.304L64.8968 627.304L64.8974 627.305L64.8981 627.305L64.8987 627.305L64.8994 627.305L64.9 627.306L64.9007 627.306L64.9013 627.306C66.2785 627.863 67.6555 628.419 69.0391 628.961L67.5849 625.931L41.2234 616.047L41.1815 615.987L37.8001 615.193C37.3431 616.282 36.9042 617.333 36.4697 618.372C35.5197 620.646 34.5909 622.868 33.5404 625.338C34.117 625.576 34.6819 625.874 35.2489 626.172C36.4979 626.83 37.7566 627.493 39.172 627.543C45.6376 627.782 50.5274 630.836 55.262 634.405C56.6881 635.476 58.3005 636.28 59.9139 637.085C60.7157 637.485 61.5178 637.885 62.2974 638.318C63.8692 639.193 65.4258 640.094 66.9822 640.995C72.5387 644.211 78.0931 647.426 84.3315 649.459C85.8513 649.954 87.1425 650.942 88.4385 651.933C89.4081 652.675 90.3804 653.419 91.4532 653.96C97.1302 656.824 102.862 659.585 108.595 662.347L108.6 662.35C110.818 663.418 113.036 664.486 115.251 665.561C116.982 668.472 119.78 669.751 122.591 671.036C124.646 671.975 126.708 672.918 128.364 674.503C129.817 675.893 131.788 676.601 133.768 677.311C134.846 677.699 135.926 678.087 136.927 678.586C138.808 679.521 140.66 680.511 142.512 681.5L142.512 681.501L142.513 681.501L142.513 681.501L142.514 681.501L142.514 681.501C145.397 683.042 148.281 684.583 151.271 685.916C153.237 686.795 155.323 687.446 157.409 688.097C159.291 688.685 161.172 689.272 162.967 690.027C164.773 690.784 166.39 691.921 168 693.054L168.001 693.055L168.001 693.055L168.002 693.055L168.002 693.056L168.003 693.056L168.003 693.056L168.004 693.057C168.475 693.389 168.946 693.72 169.421 694.041C169.989 694.433 170.498 694.896 171.007 695.358C172.3 696.531 173.586 697.699 175.794 697.681C177.052 697.67 177.807 698.578 178.608 699.541C179.451 700.555 180.344 701.631 181.93 701.761C183.895 701.919 185.609 702.956 187.324 703.994C188.078 704.45 188.833 704.906 189.608 705.287C189.876 705.42 190.166 705.529 190.456 705.638C191.764 706.129 193.065 706.618 192.255 709.263C192.138 709.646 193.288 710.272 193.944 710.62C195.581 711.48 197.24 712.303 198.898 713.126C199.513 713.431 200.127 713.735 200.739 714.042L196.81 709.833L197.519 708.773L207.782 714.159L207.782 714.159L197.532 708.781L196.823 709.841L200.752 714.05L205.433 716.367L205.434 716.366C207.156 717.005 208.845 717.701 210.536 718.398C213.215 719.501 215.897 720.606 218.716 721.488C221.78 722.448 224.411 724.4 227.045 726.354C228.275 727.266 229.506 728.18 230.782 728.992C235.474 731.946 240.198 734.848 244.959 737.684C245.791 738.123 246.785 738.236 247.821 738.011C251.245 737.247 253.766 738.641 255.933 740.481C262.381 745.944 268.715 751.588 274.987 757.29C278.925 760.868 279.845 760.582 282.836 754.205L281.462 748.974L286.538 752.203L291.703 745.395C291.502 745.189 291.278 744.952 291.036 744.695C290.393 744.013 289.617 743.19 288.782 742.443C286.271 740.198 283.747 737.972 281.221 735.744C278.931 733.723 276.639 731.702 274.354 729.664C272.304 727.83 270.482 725.881 270.647 722.111C270.702 720.873 269.963 719.75 269.302 718.748C269.227 718.634 269.153 718.522 269.082 718.412C268.269 717.15 267.369 715.974 266.469 714.798C266.075 714.283 265.681 713.769 265.295 713.247C265.191 713.306 265.074 713.389 264.958 713.472C264.712 713.647 264.467 713.822 264.342 713.765L264.135 713.673C258.969 711.385 253.804 709.099 252.37 702.117C252.2 701.29 251.807 700.583 251.414 699.874C251.261 699.598 251.108 699.323 250.967 699.04C249.474 701.035 248.166 701.313 246.596 700.062C244.715 698.565 242.779 697.147 240.843 695.729C238.832 694.256 236.821 692.783 234.873 691.222C229.761 687.118 224.737 682.893 219.8 678.545C219.085 677.913 218.649 676.919 218.212 675.923C218.008 675.459 217.804 674.995 217.572 674.566L217.623 672.677L208.739 664.858C208.577 665.006 208.416 665.153 208.254 665.299L208.254 665.3L208.253 665.3L208.098 665.441C207.988 665.541 207.878 665.642 207.768 665.743L209.829 670.423C201.107 661.448 190.081 655.117 179.035 648.775C177.885 648.114 176.735 647.454 175.587 646.791C164.584 640.428 153.422 634.314 142.046 628.601C137.165 626.154 132.135 623.978 127.105 621.803C122.481 619.803 117.857 617.804 113.351 615.593C109.353 613.644 105.57 611.305 101.787 608.966C100.027 607.878 98.2672 606.789 96.4856 605.74C95.8649 605.374 95.2247 605.039 94.5845 604.704C94.2455 604.527 93.9066 604.349 93.5705 604.167L79.6394 595.749L70.0768 590.186C70.8933 593.449 79.2483 599.45 84.0161 601.239L88.0658 604.808L88.0901 604.825C88.554 605.153 88.9488 605.432 89.2926 605.659C88.942 605.428 88.5383 605.143 88.0621 604.806L88.0595 604.804C87.1288 604.458 86.1954 604.116 85.262 603.774L85.2616 603.773L85.2612 603.773L85.2608 603.773L85.2604 603.773L85.26 603.773L85.2595 603.773L85.2592 603.773C82.9426 602.923 80.6248 602.073 78.3408 601.161C77.121 600.676 75.9653 600.063 74.811 599.451C74.4173 599.243 74.0239 599.034 73.6281 598.831L77.0599 608.56L81.3829 612.179C81.8045 612.391 82.2209 612.624 82.6389 612.858L82.6394 612.858L82.6399 612.859L82.6404 612.859L82.6409 612.859L82.6414 612.859L82.6419 612.86L82.6424 612.86C83.5749 613.382 84.5161 613.908 85.5421 614.219C86.676 614.563 86.6652 615.831 86.6547 617.078C86.6425 618.522 86.6305 619.937 88.3989 619.851C90.9966 619.707 92.2643 621.462 93.557 623.252L93.65 623.381C95.159 623.926 96.6598 624.491 98.1608 625.055L98.1615 625.055L98.162 625.056C101.542 626.327 104.922 627.599 108.398 628.651C111.947 629.726 115.264 631.255 118.58 632.783C120.542 633.687 122.503 634.591 124.512 635.401C124.831 635.529 125.151 635.657 125.47 635.785C129.314 637.327 133.186 638.879 136.644 641.079C144.154 645.87 151.408 651.072 158.653 656.275C164.993 660.83 171.243 665.518 177.402 670.337C179.127 671.693 180.677 673.293 182.224 674.89C182.942 675.631 183.659 676.371 184.392 677.086L183.547 678.265L173.64 673.04L158.467 665.057L159.283 667.587C162.946 670.1 166.828 672.267 170.712 674.435L170.713 674.435L170.713 674.435L170.713 674.436L170.714 674.436L170.714 674.436C176.758 677.809 182.81 681.187 188.063 685.883L186.026 686.051C186.016 686.065 186.006 686.079 185.996 686.093C184.248 685.005 182.503 683.92 180.732 682.878C173.468 678.655 166.196 674.438 158.903 670.263C158.163 669.839 157.333 669.564 156.504 669.289C156.118 669.161 155.731 669.033 155.354 668.89L155.354 668.89L134.82 657.524C135.033 657.86 135.244 658.198 135.454 658.536C137.257 661.428 139.059 664.319 142.086 665.831C142.855 666.19 143.625 666.55 144.394 666.91L144.401 666.914L144.408 666.917C147.492 668.361 150.577 669.805 153.697 671.179C154.155 671.386 154.736 671.357 155.317 671.328C155.578 671.315 155.84 671.302 156.09 671.311L156.09 671.31C157.049 671.811 158.009 672.311 158.97 672.81L158.973 672.812C160.913 673.82 162.852 674.829 164.784 675.853C165.114 676.027 165.471 676.174 165.828 676.322C166.677 676.674 167.53 677.027 168.036 677.726C170.468 681.051 174.052 682.393 177.633 683.733C179.985 684.614 182.336 685.494 184.358 686.935C184.508 687.028 184.766 686.963 185.025 686.897C185.144 686.867 185.263 686.836 185.372 686.821L185.387 686.807L185.41 686.785L193.73 692.53C189.82 693.37 187.745 692.41 185.701 691.186C185.375 690.992 185.049 690.795 184.723 690.599L184.722 690.598L184.721 690.597L184.72 690.597C182.468 689.239 180.199 687.872 177.693 687.052C175.959 686.479 174.108 686.13 172.262 685.781C169.48 685.256 166.709 684.733 164.367 683.453C162.654 682.519 160.898 681.65 159.14 680.78L159.139 680.779L159.138 680.779L159.138 680.779L159.137 680.778L159.136 680.778L159.136 680.778L159.135 680.777C153.529 678.002 147.905 675.218 143.63 670.334C143.273 670.046 142.872 669.823 142.437 669.669C142.227 670.482 142.052 671.165 141.683 672.623L137.49 668.19C139.396 668.931 140.867 668.237 142.067 665.867C139.046 664.374 137.252 661.491 135.458 658.609C135.24 658.259 135.022 657.908 134.802 657.56L128.992 654.907C128.581 654.864 128.145 654.862 127.71 654.86C126.778 654.856 125.847 654.852 125.158 654.444C114.349 648.006 103.596 641.482 92.8436 634.959L92.84 634.957C91.5491 634.174 90.2583 633.391 88.9673 632.608ZM251.041 698.811C251.008 698.835 250.975 698.859 250.941 698.884L250.893 698.886C250.917 698.938 250.942 698.989 250.967 699.04C251.004 698.991 251.041 698.941 251.078 698.889L251.117 698.887L251.041 698.811ZM251.041 698.811C252.734 697.598 253.896 697.78 254.513 699.601C254.901 700.902 255.382 702.144 255.951 703.317C257.493 706.215 260.197 705.542 262.898 704.869C263.566 704.703 264.234 704.536 264.884 704.424C265.178 703.52 265.472 702.623 265.769 701.721C265.193 701.439 264.615 701.161 264.036 700.884L264.035 700.883L264.035 700.883L264.034 700.883L264.033 700.882L264.033 700.882L264.032 700.882L264.032 700.882L264.031 700.881L264.03 700.881L264.03 700.881L264.029 700.88L264.029 700.88C262.797 700.289 261.564 699.697 260.354 699.067C257.402 697.525 254.787 695.475 252.167 693.421C248.806 690.785 245.438 688.143 241.338 686.562C238.42 685.434 235.936 683.418 233.45 681.399C232.199 680.383 230.947 679.367 229.639 678.463C229.174 678.144 228.549 678.069 227.924 677.994C227.668 677.963 227.411 677.933 227.165 677.885C224.654 675.008 221.895 672.566 217.644 672.702L217.592 674.591L227.373 679.257C228.008 679.931 228.641 680.609 229.273 681.286C231.359 683.519 233.443 685.751 235.618 687.873C235.74 687.993 235.862 688.113 235.985 688.234L236.056 688.304L236.056 688.305L236.057 688.305L236.057 688.306C237.499 689.729 238.994 691.205 240.824 691.886C244.818 693.369 248.074 695.835 251.041 698.811ZM214.04 680.85L214.037 680.854C213.954 680.961 213.87 681.068 213.787 681.176C211.842 680.024 209.879 678.897 207.917 677.771L207.917 677.771L207.916 677.77L207.916 677.77L207.915 677.77L207.915 677.77C203.578 675.28 199.242 672.791 195.085 670.024C190.009 666.643 185.017 663.133 180.024 659.624C174.993 656.087 169.961 652.55 164.846 649.145C161.959 647.222 158.874 645.61 155.788 643.997C153.935 643.029 152.083 642.06 150.273 641.025C146.881 639.082 143.53 637.071 139.937 634.914C138.228 633.888 136.463 632.83 134.614 631.73C138.607 630.611 141.19 630.632 143.402 632.458C145.255 633.939 147.232 635.245 149.317 636.366C151.992 637.852 154.705 639.276 157.419 640.7C162.597 643.418 167.776 646.136 172.682 649.282C182.719 655.723 192.398 662.746 202.019 669.828C205.02 672.031 207.795 674.591 210.569 677.151C211.802 678.289 213.034 679.426 214.287 680.532C214.25 680.579 214.213 680.627 214.176 680.675C214.131 680.733 214.085 680.792 214.04 680.85ZM214.58 689.024C213.639 688.439 212.555 688.058 211.272 687.962C211.272 687.962 211.272 687.962 211.272 687.962L211.265 687.958C212.553 688.056 213.639 688.438 214.58 689.024ZM201.95 692.863C201.721 693.273 201.493 693.683 201.268 694.096C197.886 693.389 195.2 691.16 193.732 687.842L201.95 692.863ZM158.44 665.1L159.256 667.63C151.827 663.722 144.385 659.833 136.933 655.962C134.876 654.89 132.799 653.854 130.721 652.818C129.678 652.298 128.636 651.778 127.595 651.253C122.441 648.436 117.294 645.609 112.154 642.772C109.467 641.292 106.781 639.809 104.094 638.325L104.093 638.325C99.2733 635.663 94.4532 633.002 89.6244 630.357C89.1727 630.211 88.6865 630.15 88.1811 630.174C86.3483 629.233 84.5128 628.296 82.6771 627.36C78.9912 625.479 75.3048 623.597 71.639 621.686C59.6602 615.413 47.6759 609.148 35.6863 602.892L35.6813 602.869C34.3718 602.369 33.0615 601.88 31.7518 601.391L31.7514 601.39L31.751 601.39L31.7506 601.39L31.7502 601.39L31.7498 601.39L31.7494 601.39L31.749 601.389L31.7487 601.389L31.7483 601.389L31.7479 601.389L31.7475 601.389C28.4577 600.161 25.1713 598.934 21.9094 597.535C19.9554 596.697 17.8755 596.112 15.7725 595.52C12.9593 594.728 10.1049 593.925 7.4556 592.49C7.80928 592.159 8.08169 591.878 8.29246 591.661L8.29377 591.66L8.29406 591.66C8.62439 591.319 8.803 591.135 8.90576 591.159C17.3851 592.966 25.8583 594.786 34.3255 596.618L34.3306 596.641C36.0572 597.381 37.7882 598.111 39.5189 598.841C44.3354 600.873 49.1503 602.904 53.8658 605.127C58.2355 607.19 62.5095 609.431 66.7836 611.672L66.7839 611.672L66.7843 611.672L66.7847 611.672L66.785 611.673L66.7854 611.673L66.7858 611.673L66.7862 611.673C68.6628 612.657 70.5395 613.641 72.4242 614.61L72.4271 614.611L70.0026 610.006C72.4879 609.6 73.9773 610.185 74.5862 612.256C74.8278 613.069 74.9773 613.939 75.1266 614.809C75.191 615.184 75.2554 615.559 75.3271 615.929L81.9425 619.539L81.9456 619.541L80.2688 615.719L82.8762 614.405L81.3818 612.202C81.8076 612.417 82.2235 612.65 82.6392 612.882L82.6397 612.883C83.5711 613.404 84.5017 613.924 85.541 614.243C86.6749 614.586 86.6642 615.855 86.6536 617.101C86.6414 618.545 86.6295 619.96 88.3979 619.874C91.0028 619.743 92.2778 621.507 93.5786 623.307L93.6489 623.404L95.1014 626.451L95.0982 626.449C95.2167 629.956 97.1753 631.355 99.651 632.684C115.148 640.979 130.564 649.415 145.981 657.85L145.982 657.851L145.996 657.858C149.518 659.786 153.041 661.713 156.565 663.639C157.227 664.072 157.854 664.56 158.44 665.1ZM73.6239 598.852L77.0557 608.581C74.3662 608.667 72.5476 607.987 73.2949 604.087C73.4892 603.055 72.6103 601.734 71.8079 601.175C69.3501 599.412 66.7521 597.862 64.0294 596.535C57.3483 593.396 50.6317 590.328 43.9161 587.26L43.9144 587.259C40.4795 585.69 37.0448 584.12 33.6154 582.542C33.3454 582.417 33.0526 582.321 32.7543 582.223C31.5826 581.838 30.3256 581.425 30.0331 579.113C30.4559 579.156 30.829 579.173 31.163 579.189C31.7767 579.217 32.258 579.24 32.6719 579.404C34.4821 580.106 36.3048 580.785 38.1278 581.465C42.9164 583.251 47.7063 585.037 52.2739 587.23C57.3764 589.667 62.2887 592.456 67.2006 595.244C69.3366 596.456 71.4725 597.669 73.6239 598.852Z" fill="#F28C22"/>
<defs>
<linearGradient id="paint0_linear_180_695" x1="474.517" y1="808" x2="474.517" y2="92" gradientUnits="userSpaceOnUse">
<stop offset="0.038685" stop-color="#2269F2"/>
<stop offset="0.965779" stop-color="#7FD6FC"/>
</linearGradient>
</defs>
</svg>
