<svg xmlns="http://www.w3.org/2000/svg" width="1266" height="328" viewBox="0 0 1266 328" fill="none">
<path d="M1265 30C1265 13.4314 1251.57 0 1235 0H633H31C14.4315 0 1 13.4315 1 30V298C1 314.569 14.4315 328 31 328H1235C1251.57 328 1265 314.569 1265 298V30Z" fill="#1D3639"/>
<g opacity="0.8">
<path d="M1263 174C1168.33 175.715 979 208.916 979 328" stroke="white"/>
<path d="M1265 120C1199.33 122.316 1068 167.159 1068 328" stroke="white"/>
</g>
<g opacity="0.8">
<path d="M3 154C97.6667 152.285 287 119.084 287 0" stroke="white"/>
<path d="M1 208C66.6667 205.684 198 160.841 198 -4.38094e-06" stroke="white"/>
</g>
</svg>