<svg width="50" height="50" viewBox="0 0 50 50" fill="none" xmlns="http://www.w3.org/2000/svg">
<rect x="7.50012" y="8.97461" width="35" height="33.3333" fill="#FFFAF3"/>
<path d="M24.249 0H25.751C31.8879 0 37.7019 2.6082 43.1928 7.82461C47.0526 12.5081 49.1764 16.7474 49.564 20.5426C49.8547 22.3353 50 23.4738 50 23.9583V26.0174C50 29.3443 48.8695 33.1961 46.6085 37.5727C43.314 42.9667 38.6224 46.7135 32.5339 48.813C29.4493 49.6043 27.0349 50 25.2907 50H24.7093C18.3301 50 12.4112 47.4322 6.95252 42.2965C2.31751 37.1609 0 31.1935 0 24.3944V24.1037C0 23.8776 0.0484496 23.6838 0.145349 23.5223C0.145349 23.4092 0.0968992 23.3527 0 23.3527C0.629845 18.5401 1.91376 14.6479 3.85174 11.6764C6.92022 6.68605 11.6521 3.13307 18.0475 1.01744C20.4377 0.339147 22.5048 0 24.249 0ZM20.8576 15.9641L21.0029 20.5426C21.0029 20.688 20.8576 20.8414 20.5669 21.0029H18.0475V26.1628H20.5669C20.7122 26.1628 20.8576 26.3162 21.0029 26.6231V39.3411L21.0756 40.2374H26.3324V26.4777C26.3647 26.2678 26.4616 26.1628 26.6231 26.1628H30.9109C31.1047 26.1628 31.355 24.5397 31.6618 21.2936V21.0029H26.6231C26.4293 21.0029 26.3324 20.906 26.3324 20.7122V17.1512C26.3324 15.6331 27.2206 14.7933 28.9971 14.6318H31.9525V10.1986C31.9525 9.90795 30.9189 9.7626 28.8517 9.7626H28.1008C24.6932 9.7626 22.4725 11.0384 21.439 13.5901C21.2452 14.1231 21.0514 14.9144 20.8576 15.9641Z" fill="#2269F2"/>
</svg>
