<svg xmlns="http://www.w3.org/2000/svg" width="720" height="1144" viewBox="0 0 720 1144" fill="none">
<path d="M82.9999 834C82.9999 972.071 194.929 1084 333 1084L720 1084L720 153L401.5 153L103 153C91.9541 153 82.9998 161.954 82.9998 173L82.9999 834Z" fill="url(#paint0_linear_180_626)"/>
<g filter="url(#filter0_bd_180_626)">
<circle cx="325.5" cy="924.5" r="16.5" fill="#E5E5E5" fill-opacity="0.2" shape-rendering="crispEdges"/>
<circle cx="325.5" cy="924.5" r="16" stroke="white" stroke-opacity="0.2" shape-rendering="crispEdges"/>
</g>
<circle cx="325.5" cy="924.5" r="7.5" fill="white"/>
<g filter="url(#filter1_bd_180_626)">
<circle cx="570.5" cy="391.5" r="16.5" fill="#E5E5E5" fill-opacity="0.2" shape-rendering="crispEdges"/>
<circle cx="570.5" cy="391.5" r="16" stroke="white" stroke-opacity="0.2" shape-rendering="crispEdges"/>
</g>
<circle cx="570.5" cy="391.5" r="7.5" fill="white"/>
<g filter="url(#filter2_bd_180_626)">
<path d="M477 136C477 124.954 485.954 116 497 116H644C655.045 116 664 124.954 664 136V315C664 326.046 655.045 335 644 335H598.989C591.741 335 585.06 338.922 581.527 345.25L574.865 357.181C572.958 360.598 568.042 360.598 566.134 357.181L559.473 345.25C555.939 338.922 549.258 335 542.01 335H497C485.954 335 477 326.046 477 315V136Z" fill="#E5E5E5" fill-opacity="0.2" shape-rendering="crispEdges"/>
<path d="M477.5 136C477.5 125.23 486.23 116.5 497 116.5H644C654.769 116.5 663.5 125.23 663.5 136V315C663.5 325.77 654.769 334.5 644 334.5H598.989C591.56 334.5 584.712 338.52 581.09 345.006L574.429 356.937C572.712 360.012 568.288 360.012 566.571 356.937L559.909 345.006C556.288 338.52 549.44 334.5 542.01 334.5H497C486.23 334.5 477.5 325.77 477.5 315V136Z" stroke="white" stroke-opacity="0.2" shape-rendering="crispEdges"/>
</g>
<g filter="url(#filter3_d_180_626)">
<path d="M485 138C485 130.268 491.268 124 499 124H642C649.732 124 656 130.268 656 138V208C656 215.732 649.732 222 642 222H499C491.268 222 485 215.732 485 208V138Z" fill="#C4C4C4"/>
<path d="M485.5 138C485.5 130.544 491.544 124.5 499 124.5H642C649.456 124.5 655.5 130.544 655.5 138V208C655.5 215.456 649.456 221.5 642 221.5H499C491.544 221.5 485.5 215.456 485.5 208V138Z" stroke="white" stroke-opacity="0.2"/>
</g>
<path d="M499.356 260V249.218H495.216V247.31H505.818V249.218H501.678V260H499.356ZM513.525 256.004H507.531C507.603 256.82 507.849 257.426 508.269 257.822C508.689 258.218 509.289 258.416 510.069 258.416C511.041 258.416 511.929 258.104 512.733 257.48L513.381 259.028C512.973 259.364 512.457 259.634 511.833 259.838C511.221 260.042 510.603 260.144 509.979 260.144C508.539 260.144 507.399 259.736 506.559 258.92C505.731 258.104 505.317 256.988 505.317 255.572C505.317 254.672 505.497 253.874 505.857 253.178C506.217 252.482 506.721 251.942 507.369 251.558C508.029 251.174 508.773 250.982 509.601 250.982C510.813 250.982 511.767 251.372 512.463 252.152C513.171 252.932 513.525 254.006 513.525 255.374V256.004ZM509.655 252.566C509.055 252.566 508.569 252.758 508.197 253.142C507.837 253.526 507.615 254.078 507.531 254.798H511.599C511.575 254.066 511.395 253.514 511.059 253.142C510.723 252.758 510.255 252.566 509.655 252.566ZM525.823 250.982C526.819 250.982 527.563 251.282 528.055 251.882C528.547 252.47 528.793 253.376 528.793 254.6V260H526.543V254.69C526.543 254.018 526.429 253.532 526.201 253.232C525.973 252.92 525.607 252.764 525.103 252.764C524.503 252.764 524.035 252.968 523.699 253.376C523.363 253.784 523.195 254.354 523.195 255.086V260H520.945V254.69C520.945 254.018 520.831 253.532 520.603 253.232C520.387 252.92 520.021 252.764 519.505 252.764C518.917 252.764 518.455 252.968 518.119 253.376C517.783 253.784 517.615 254.354 517.615 255.086V260H515.365V251.198H517.561V252.44C517.825 251.96 518.191 251.6 518.659 251.36C519.127 251.108 519.661 250.982 520.261 250.982C521.593 250.982 522.475 251.534 522.907 252.638C523.183 252.122 523.579 251.72 524.095 251.432C524.611 251.132 525.187 250.982 525.823 250.982ZM534.86 250.982C536.096 250.982 537.014 251.282 537.614 251.882C538.214 252.482 538.514 253.406 538.514 254.654V260H536.372V258.65C536.168 259.118 535.844 259.484 535.4 259.748C534.968 260.012 534.464 260.144 533.888 260.144C533.3 260.144 532.766 260.024 532.286 259.784C531.806 259.544 531.428 259.214 531.152 258.794C530.876 258.374 530.738 257.906 530.738 257.39C530.738 256.742 530.9 256.232 531.224 255.86C531.56 255.488 532.1 255.218 532.844 255.05C533.588 254.882 534.614 254.798 535.922 254.798H536.372V254.384C536.372 253.784 536.24 253.352 535.976 253.088C535.724 252.824 535.298 252.692 534.698 252.692C534.23 252.692 533.738 252.776 533.222 252.944C532.718 253.1 532.22 253.322 531.728 253.61L531.098 252.062C531.59 251.75 532.184 251.492 532.88 251.288C533.576 251.084 534.236 250.982 534.86 250.982ZM534.338 258.524C534.938 258.524 535.424 258.326 535.796 257.93C536.18 257.522 536.372 257 536.372 256.364V255.986H536.048C535.244 255.986 534.62 256.022 534.176 256.094C533.732 256.166 533.414 256.292 533.222 256.472C533.03 256.652 532.934 256.898 532.934 257.21C532.934 257.594 533.066 257.912 533.33 258.164C533.594 258.404 533.93 258.524 534.338 258.524ZM545.913 250.982C546.969 250.982 547.755 251.282 548.271 251.882C548.787 252.482 549.045 253.388 549.045 254.6V260H546.795V254.726C546.795 254.042 546.663 253.544 546.399 253.232C546.147 252.92 545.745 252.764 545.193 252.764C544.545 252.764 544.023 252.968 543.627 253.376C543.243 253.784 543.051 254.33 543.051 255.014V260H540.801V251.198H542.997V252.512C543.297 252.02 543.699 251.642 544.203 251.378C544.707 251.114 545.277 250.982 545.913 250.982ZM551.33 260V251.198H553.58V260H551.33ZM551.204 247.112H553.688V249.326H551.204V247.112ZM569.769 247.31H572.037V260H569.769V254.492H563.271V260H560.985V247.31H563.271V252.62H569.769V247.31ZM578.582 260.144C577.682 260.144 576.89 259.958 576.206 259.586C575.534 259.214 575.012 258.68 574.64 257.984C574.268 257.288 574.082 256.478 574.082 255.554C574.082 254.63 574.268 253.826 574.64 253.142C575.012 252.446 575.534 251.912 576.206 251.54C576.89 251.168 577.682 250.982 578.582 250.982C579.482 250.982 580.268 251.168 580.94 251.54C581.624 251.912 582.146 252.446 582.506 253.142C582.878 253.826 583.064 254.63 583.064 255.554C583.064 256.478 582.878 257.288 582.506 257.984C582.146 258.68 581.624 259.214 580.94 259.586C580.268 259.958 579.482 260.144 578.582 260.144ZM578.564 258.398C579.296 258.398 579.854 258.158 580.238 257.678C580.622 257.198 580.814 256.49 580.814 255.554C580.814 254.63 580.622 253.928 580.238 253.448C579.854 252.956 579.302 252.71 578.582 252.71C577.862 252.71 577.304 252.956 576.908 253.448C576.524 253.928 576.332 254.63 576.332 255.554C576.332 256.49 576.524 257.198 576.908 257.678C577.292 258.158 577.844 258.398 578.564 258.398ZM593.004 251.198V260H590.808V258.65C590.532 259.13 590.16 259.502 589.692 259.766C589.224 260.018 588.696 260.144 588.108 260.144C585.948 260.144 584.868 258.932 584.868 256.508V251.198H587.118V256.526C587.118 257.15 587.244 257.612 587.496 257.912C587.748 258.212 588.144 258.362 588.684 258.362C589.308 258.362 589.806 258.158 590.178 257.75C590.562 257.33 590.754 256.778 590.754 256.094V251.198H593.004ZM598.586 260.144C597.806 260.144 597.086 260.048 596.426 259.856C595.778 259.664 595.226 259.388 594.77 259.028L595.4 257.462C596.336 258.146 597.41 258.488 598.622 258.488C599.138 258.488 599.528 258.404 599.792 258.236C600.068 258.068 600.206 257.828 600.206 257.516C600.206 257.252 600.11 257.048 599.918 256.904C599.738 256.76 599.408 256.628 598.928 256.508L597.488 256.184C596.672 256.004 596.066 255.71 595.67 255.302C595.274 254.894 595.076 254.366 595.076 253.718C595.076 253.178 595.226 252.704 595.526 252.296C595.838 251.876 596.264 251.552 596.804 251.324C597.356 251.096 597.992 250.982 598.712 250.982C599.336 250.982 599.936 251.078 600.512 251.27C601.1 251.462 601.616 251.732 602.06 252.08L601.43 253.61C600.518 252.95 599.606 252.62 598.694 252.62C598.202 252.62 597.818 252.71 597.542 252.89C597.266 253.07 597.128 253.322 597.128 253.646C597.128 253.886 597.212 254.084 597.38 254.24C597.56 254.396 597.842 254.516 598.226 254.6L599.72 254.942C600.596 255.134 601.238 255.44 601.646 255.86C602.054 256.268 602.258 256.808 602.258 257.48C602.258 258.296 601.928 258.944 601.268 259.424C600.608 259.904 599.714 260.144 598.586 260.144ZM611.804 256.004H605.81C605.882 256.82 606.128 257.426 606.548 257.822C606.968 258.218 607.568 258.416 608.348 258.416C609.32 258.416 610.208 258.104 611.012 257.48L611.66 259.028C611.252 259.364 610.736 259.634 610.112 259.838C609.5 260.042 608.882 260.144 608.258 260.144C606.818 260.144 605.678 259.736 604.838 258.92C604.01 258.104 603.596 256.988 603.596 255.572C603.596 254.672 603.776 253.874 604.136 253.178C604.496 252.482 605 251.942 605.648 251.558C606.308 251.174 607.052 250.982 607.88 250.982C609.092 250.982 610.046 251.372 610.742 252.152C611.45 252.932 611.804 254.006 611.804 255.374V256.004ZM607.934 252.566C607.334 252.566 606.848 252.758 606.476 253.142C606.116 253.526 605.894 254.078 605.81 254.798H609.878C609.854 254.066 609.674 253.514 609.338 253.142C609.002 252.758 608.534 252.566 607.934 252.566Z" fill="white"/>
<path opacity="0.8" d="M499.656 285.096C498.856 285.096 498.16 284.924 497.568 284.58C496.976 284.228 496.52 283.728 496.2 283.08C495.888 282.424 495.732 281.652 495.732 280.764C495.732 279.876 495.888 279.108 496.2 278.46C496.52 277.812 496.976 277.316 497.568 276.972C498.16 276.62 498.856 276.444 499.656 276.444C500.24 276.444 500.776 276.536 501.264 276.72C501.752 276.896 502.176 277.16 502.536 277.512L502.164 278.268C501.756 277.924 501.356 277.676 500.964 277.524C500.572 277.372 500.14 277.296 499.668 277.296C498.74 277.296 498.02 277.6 497.508 278.208C497.004 278.808 496.752 279.66 496.752 280.764C496.752 281.876 497.004 282.736 497.508 283.344C498.02 283.944 498.74 284.244 499.668 284.244C500.14 284.244 500.572 284.168 500.964 284.016C501.356 283.864 501.756 283.616 502.164 283.272L502.536 284.028C502.176 284.38 501.752 284.648 501.264 284.832C500.776 285.008 500.24 285.096 499.656 285.096ZM506.28 279.012C507.024 279.012 507.576 279.204 507.936 279.588C508.304 279.964 508.488 280.54 508.488 281.316V285H507.54V284.004C507.388 284.348 507.156 284.616 506.844 284.808C506.532 284.992 506.172 285.084 505.764 285.084C505.388 285.084 505.04 285.008 504.72 284.856C504.408 284.704 504.16 284.492 503.976 284.22C503.792 283.948 503.7 283.648 503.7 283.32C503.7 282.88 503.812 282.54 504.036 282.3C504.26 282.052 504.628 281.876 505.14 281.772C505.652 281.66 506.364 281.604 507.276 281.604H507.54V281.208C507.54 280.72 507.44 280.368 507.24 280.152C507.04 279.928 506.716 279.816 506.268 279.816C505.596 279.816 504.928 280.024 504.264 280.44L503.94 279.732C504.244 279.516 504.608 279.344 505.032 279.216C505.464 279.08 505.88 279.012 506.28 279.012ZM505.896 284.316C506.376 284.316 506.768 284.156 507.072 283.836C507.384 283.508 507.54 283.088 507.54 282.576V282.228H507.324C506.62 282.228 506.084 282.26 505.716 282.324C505.348 282.38 505.084 282.48 504.924 282.624C504.772 282.76 504.696 282.964 504.696 283.236C504.696 283.548 504.808 283.808 505.032 284.016C505.264 284.216 505.552 284.316 505.896 284.316ZM510.267 285V276.54H511.239V285H510.267ZM513.056 285V279.156H514.028V285H513.056ZM512.96 276.624H514.136V277.716H512.96V276.624ZM517.141 279.156H518.797V279.924H517.141V285H516.169V279.924H515.029V279.156H516.169V278.964C516.169 278.188 516.361 277.6 516.745 277.2C517.137 276.8 517.737 276.576 518.545 276.528L519.025 276.504L519.097 277.26L518.545 277.296C518.057 277.328 517.701 277.468 517.477 277.716C517.253 277.956 517.141 278.328 517.141 278.832V279.156ZM522.148 285.084C521.596 285.084 521.108 284.96 520.684 284.712C520.268 284.464 519.944 284.112 519.712 283.656C519.488 283.192 519.376 282.656 519.376 282.048C519.376 281.44 519.488 280.908 519.712 280.452C519.944 279.988 520.268 279.632 520.684 279.384C521.108 279.136 521.596 279.012 522.148 279.012C522.7 279.012 523.188 279.136 523.612 279.384C524.036 279.632 524.36 279.988 524.584 280.452C524.816 280.908 524.932 281.44 524.932 282.048C524.932 282.656 524.816 283.192 524.584 283.656C524.36 284.112 524.036 284.464 523.612 284.712C523.188 284.96 522.7 285.084 522.148 285.084ZM522.148 284.28C522.724 284.28 523.164 284.092 523.468 283.716C523.78 283.332 523.936 282.776 523.936 282.048C523.936 281.336 523.78 280.788 523.468 280.404C523.156 280.012 522.716 279.816 522.148 279.816C521.58 279.816 521.14 280.012 520.828 280.404C520.516 280.788 520.36 281.336 520.36 282.048C520.36 282.768 520.512 283.32 520.816 283.704C521.128 284.088 521.572 284.28 522.148 284.28ZM529.692 279.852L529.056 279.912C528.456 279.968 528.02 280.156 527.748 280.476C527.484 280.796 527.352 281.192 527.352 281.664V285H526.38V279.156H527.328V280.176C527.656 279.496 528.3 279.116 529.26 279.036L529.608 279.012L529.692 279.852ZM533.551 279.012C534.951 279.012 535.651 279.784 535.651 281.328V285H534.679V281.388C534.679 280.844 534.571 280.448 534.355 280.2C534.147 279.952 533.811 279.828 533.347 279.828C532.811 279.828 532.383 279.992 532.063 280.32C531.743 280.648 531.583 281.092 531.583 281.652V285H530.611V279.156H531.571V280.116C531.763 279.756 532.031 279.484 532.375 279.3C532.719 279.108 533.111 279.012 533.551 279.012ZM537.431 285V279.156H538.403V285H537.431ZM537.335 276.624H538.511V277.716H537.335V276.624ZM542.596 279.012C543.34 279.012 543.892 279.204 544.252 279.588C544.62 279.964 544.804 280.54 544.804 281.316V285H543.856V284.004C543.704 284.348 543.472 284.616 543.16 284.808C542.848 284.992 542.488 285.084 542.08 285.084C541.704 285.084 541.356 285.008 541.036 284.856C540.724 284.704 540.476 284.492 540.292 284.22C540.108 283.948 540.016 283.648 540.016 283.32C540.016 282.88 540.128 282.54 540.352 282.3C540.576 282.052 540.944 281.876 541.456 281.772C541.968 281.66 542.68 281.604 543.592 281.604H543.856V281.208C543.856 280.72 543.756 280.368 543.556 280.152C543.356 279.928 543.032 279.816 542.584 279.816C541.912 279.816 541.244 280.024 540.58 280.44L540.256 279.732C540.56 279.516 540.924 279.344 541.348 279.216C541.78 279.08 542.196 279.012 542.596 279.012ZM542.212 284.316C542.692 284.316 543.084 284.156 543.388 283.836C543.7 283.508 543.856 283.088 543.856 282.576V282.228H543.64C542.936 282.228 542.4 282.26 542.032 282.324C541.664 282.38 541.4 282.48 541.24 282.624C541.088 282.76 541.012 282.964 541.012 283.236C541.012 283.548 541.124 283.808 541.348 284.016C541.58 284.216 541.868 284.316 542.212 284.316ZM547.663 283.776V284.64C547.663 284.976 547.607 285.28 547.495 285.552C547.391 285.832 547.207 286.104 546.943 286.368L546.487 286.02C546.799 285.676 546.975 285.336 547.015 285H546.439V283.776H547.663ZM555.863 285.096C554.759 285.096 553.923 284.808 553.355 284.232C552.787 283.656 552.503 282.808 552.503 281.688V276.54H553.475V281.772C553.475 282.596 553.675 283.216 554.075 283.632C554.483 284.048 555.079 284.256 555.863 284.256C556.647 284.256 557.239 284.048 557.639 283.632C558.039 283.216 558.239 282.596 558.239 281.772V276.54H559.223V281.688C559.223 282.8 558.935 283.648 558.359 284.232C557.791 284.808 556.959 285.096 555.863 285.096ZM563.935 285.096C562.615 285.096 561.559 284.74 560.767 284.028L561.151 283.272C561.567 283.624 561.991 283.876 562.423 284.028C562.863 284.18 563.371 284.256 563.947 284.256C564.627 284.256 565.151 284.124 565.519 283.86C565.887 283.596 566.071 283.224 566.071 282.744C566.071 282.464 565.983 282.236 565.807 282.06C565.631 281.884 565.399 281.744 565.111 281.64C564.823 281.536 564.435 281.428 563.947 281.316C563.291 281.164 562.751 281.004 562.327 280.836C561.911 280.668 561.571 280.428 561.307 280.116C561.051 279.804 560.923 279.396 560.923 278.892C560.923 278.412 561.047 277.988 561.295 277.62C561.551 277.244 561.911 276.956 562.375 276.756C562.847 276.548 563.391 276.444 564.007 276.444C564.591 276.444 565.135 276.536 565.639 276.72C566.151 276.904 566.583 277.168 566.935 277.512L566.563 278.268C566.163 277.924 565.755 277.676 565.339 277.524C564.931 277.364 564.487 277.284 564.007 277.284C563.351 277.284 562.835 277.424 562.459 277.704C562.091 277.976 561.907 278.36 561.907 278.856C561.907 279.28 562.071 279.6 562.399 279.816C562.727 280.032 563.223 280.216 563.887 280.368C564.615 280.544 565.187 280.708 565.603 280.86C566.019 281.004 566.363 281.224 566.635 281.52C566.915 281.816 567.055 282.212 567.055 282.708C567.055 283.188 566.927 283.608 566.671 283.968C566.423 284.328 566.063 284.608 565.591 284.808C565.119 285 564.567 285.096 563.935 285.096ZM575.086 285L574.15 282.828H569.734L568.798 285H567.79L571.51 276.54H572.362L576.082 285H575.086ZM570.082 282.012H573.802L571.942 277.68L570.082 282.012Z" fill="white"/>
<path d="M501.696 306.66C501.696 307.3 501.472 307.836 501.024 308.268C500.576 308.7 499.976 308.964 499.224 309.06V310.38H498.216V309.084C497.68 309.044 497.18 308.94 496.716 308.772C496.252 308.596 495.848 308.356 495.504 308.052L495.948 307.128C496.356 307.464 496.772 307.708 497.196 307.86C497.62 308.012 498.084 308.088 498.588 308.088C499.18 308.088 499.636 307.968 499.956 307.728C500.284 307.488 500.448 307.144 500.448 306.696C500.448 306.432 500.36 306.22 500.184 306.06C500.016 305.892 499.804 305.764 499.548 305.676C499.292 305.588 498.936 305.484 498.48 305.364C497.88 305.212 497.392 305.06 497.016 304.908C496.64 304.756 496.316 304.52 496.044 304.2C495.78 303.88 495.648 303.456 495.648 302.928C495.648 302.28 495.88 301.732 496.344 301.284C496.816 300.828 497.436 300.556 498.204 300.468V299.16H499.212V300.468C499.676 300.516 500.112 300.628 500.52 300.804C500.936 300.98 501.288 301.204 501.576 301.476L501.132 302.388C500.412 301.764 499.604 301.452 498.708 301.452C498.156 301.452 497.716 301.58 497.388 301.836C497.06 302.084 496.896 302.428 496.896 302.868C496.896 303.164 496.988 303.408 497.172 303.6C497.356 303.784 497.584 303.928 497.856 304.032C498.128 304.128 498.5 304.232 498.972 304.344C499.556 304.488 500.028 304.632 500.388 304.776C500.748 304.92 501.056 305.144 501.312 305.448C501.568 305.752 501.696 306.156 501.696 306.66ZM507.043 304.656C507.539 304.8 507.915 305.048 508.171 305.4C508.435 305.744 508.567 306.18 508.567 306.708C508.567 307.444 508.307 308.024 507.787 308.448C507.267 308.872 506.563 309.084 505.675 309.084C505.115 309.084 504.579 308.996 504.067 308.82C503.555 308.636 503.127 308.384 502.783 308.064L503.227 307.152C503.987 307.768 504.791 308.076 505.639 308.076C506.207 308.076 506.635 307.956 506.923 307.716C507.219 307.468 507.367 307.104 507.367 306.624C507.367 306.152 507.215 305.8 506.911 305.568C506.615 305.328 506.163 305.208 505.555 305.208H504.511V304.212H505.363C505.947 304.212 506.391 304.092 506.695 303.852C507.007 303.604 507.163 303.244 507.163 302.772C507.163 302.348 507.035 302.024 506.779 301.8C506.523 301.568 506.163 301.452 505.699 301.452C504.891 301.452 504.107 301.76 503.347 302.376L502.915 301.464C503.251 301.144 503.671 300.896 504.175 300.72C504.687 300.536 505.215 300.444 505.759 300.444C506.551 300.444 507.183 300.64 507.655 301.032C508.127 301.424 508.363 301.956 508.363 302.628C508.363 303.1 508.247 303.516 508.015 303.876C507.783 304.236 507.459 304.496 507.043 304.656ZM512.726 300.444C513.774 300.444 514.578 300.804 515.138 301.524C515.706 302.236 515.99 303.256 515.99 304.584C515.99 305.528 515.854 306.34 515.582 307.02C515.318 307.692 514.934 308.208 514.43 308.568C513.934 308.92 513.334 309.096 512.63 309.096C512.134 309.096 511.65 309.008 511.178 308.832C510.714 308.656 510.306 308.404 509.954 308.076L510.386 307.164C511.154 307.78 511.89 308.088 512.594 308.088C513.282 308.088 513.814 307.788 514.19 307.188C514.566 306.58 514.754 305.72 514.754 304.608V304.584C514.578 304.992 514.29 305.316 513.89 305.556C513.498 305.788 513.054 305.904 512.558 305.904C512.054 305.904 511.602 305.792 511.202 305.568C510.802 305.336 510.49 305.016 510.266 304.608C510.05 304.2 509.942 303.732 509.942 303.204C509.942 302.676 510.062 302.204 510.302 301.788C510.542 301.364 510.87 301.036 511.286 300.804C511.71 300.564 512.19 300.444 512.726 300.444ZM512.786 304.896C513.29 304.896 513.698 304.74 514.01 304.428C514.33 304.108 514.49 303.692 514.49 303.18C514.49 302.66 514.334 302.244 514.022 301.932C513.71 301.612 513.298 301.452 512.786 301.452C512.29 301.452 511.89 301.612 511.586 301.932C511.29 302.244 511.142 302.66 511.142 303.18C511.142 303.692 511.29 304.108 511.586 304.428C511.89 304.74 512.29 304.896 512.786 304.896ZM520.186 309.096C519.202 309.096 518.45 308.728 517.93 307.992C517.418 307.256 517.162 306.184 517.162 304.776C517.162 303.368 517.418 302.296 517.93 301.56C518.45 300.816 519.202 300.444 520.186 300.444C521.17 300.444 521.918 300.812 522.43 301.548C522.95 302.284 523.21 303.356 523.21 304.764C523.21 306.18 522.95 307.256 522.43 307.992C521.918 308.728 521.17 309.096 520.186 309.096ZM520.186 308.1C520.802 308.1 521.254 307.832 521.542 307.296C521.83 306.76 521.974 305.916 521.974 304.764C521.974 303.62 521.83 302.784 521.542 302.256C521.254 301.72 520.802 301.452 520.186 301.452C519.57 301.452 519.118 301.72 518.83 302.256C518.542 302.784 518.398 303.62 518.398 304.764C518.398 305.908 518.542 306.752 518.83 307.296C519.118 307.832 519.57 308.1 520.186 308.1ZM525.917 307.572V308.544C525.917 308.92 525.853 309.26 525.725 309.564C525.605 309.876 525.397 310.18 525.101 310.476L524.573 310.056C524.909 309.696 525.101 309.344 525.149 309H524.489V307.572H525.917ZM530.24 309.096C529.256 309.096 528.504 308.728 527.984 307.992C527.472 307.256 527.216 306.184 527.216 304.776C527.216 303.368 527.472 302.296 527.984 301.56C528.504 300.816 529.256 300.444 530.24 300.444C531.224 300.444 531.972 300.812 532.484 301.548C533.004 302.284 533.264 303.356 533.264 304.764C533.264 306.18 533.004 307.256 532.484 307.992C531.972 308.728 531.224 309.096 530.24 309.096ZM530.24 308.1C530.856 308.1 531.308 307.832 531.596 307.296C531.884 306.76 532.028 305.916 532.028 304.764C532.028 303.62 531.884 302.784 531.596 302.256C531.308 301.72 530.856 301.452 530.24 301.452C529.624 301.452 529.172 301.72 528.884 302.256C528.596 302.784 528.452 303.62 528.452 304.764C528.452 305.908 528.596 306.752 528.884 307.296C529.172 307.832 529.624 308.1 530.24 308.1ZM537.436 309.096C536.452 309.096 535.7 308.728 535.18 307.992C534.668 307.256 534.412 306.184 534.412 304.776C534.412 303.368 534.668 302.296 535.18 301.56C535.7 300.816 536.452 300.444 537.436 300.444C538.42 300.444 539.168 300.812 539.68 301.548C540.2 302.284 540.46 303.356 540.46 304.764C540.46 306.18 540.2 307.256 539.68 307.992C539.168 308.728 538.42 309.096 537.436 309.096ZM537.436 308.1C538.052 308.1 538.504 307.832 538.792 307.296C539.08 306.76 539.224 305.916 539.224 304.764C539.224 303.62 539.08 302.784 538.792 302.256C538.504 301.72 538.052 301.452 537.436 301.452C536.82 301.452 536.368 301.72 536.08 302.256C535.792 302.784 535.648 303.62 535.648 304.764C535.648 305.908 535.792 306.752 536.08 307.296C536.368 307.832 536.82 308.1 537.436 308.1ZM544.631 309.096C543.647 309.096 542.895 308.728 542.375 307.992C541.863 307.256 541.607 306.184 541.607 304.776C541.607 303.368 541.863 302.296 542.375 301.56C542.895 300.816 543.647 300.444 544.631 300.444C545.615 300.444 546.363 300.812 546.875 301.548C547.395 302.284 547.655 303.356 547.655 304.764C547.655 306.18 547.395 307.256 546.875 307.992C546.363 308.728 545.615 309.096 544.631 309.096ZM544.631 308.1C545.247 308.1 545.699 307.832 545.987 307.296C546.275 306.76 546.419 305.916 546.419 304.764C546.419 303.62 546.275 302.784 545.987 302.256C545.699 301.72 545.247 301.452 544.631 301.452C544.015 301.452 543.563 301.72 543.275 302.256C542.987 302.784 542.843 303.62 542.843 304.764C542.843 305.908 542.987 306.752 543.275 307.296C543.563 307.832 544.015 308.1 544.631 308.1Z" fill="white"/>
<path fill-rule="evenodd" clip-rule="evenodd" d="M48.1933 229.258C47.8069 229.78 47.4131 230.295 47.0193 230.809C46.1192 231.986 45.2191 233.162 44.4066 234.423C44.3351 234.534 44.2613 234.646 44.1865 234.759C43.5258 235.762 42.7861 236.884 42.8409 238.123C43.0061 241.892 41.1844 243.842 39.1341 245.675C36.7775 247.779 34.4104 249.867 32.042 251.957L32.0415 251.957L32.041 251.957L32.0405 251.958L32.0402 251.958C29.5938 254.116 27.1459 256.276 24.7066 258.455C23.8423 259.227 23.0327 260.087 22.3795 260.781C22.163 261.011 21.9637 261.222 21.7853 261.406L26.9503 268.214L22.1043 274.518L17.6463 272.452C17.0147 269.573 16.4947 267.219 15.8987 264.533C17.2062 263.39 18.5216 262.254 19.8379 261.117C27.0594 254.881 34.3075 248.623 40.421 240.931L31.3857 246.55C30.7219 246.176 29.7702 245.68 28.8842 245.218L28.7842 245.166L15.7426 253.151C14.8284 248.675 16.567 246.914 18.1903 245.269C18.6264 244.827 19.0542 244.393 19.42 243.918C20.6923 242.261 22.119 240.766 23.7479 239.06C24.5247 238.246 25.3476 237.384 26.2215 236.434L22.9148 237.032C29.3872 228.011 37.8356 221.628 46.467 215.179C46.7359 215.724 46.976 216.214 47.2039 216.679L47.2066 216.684C47.3849 217.048 47.5558 217.397 47.7273 217.745C48.0243 218.647 48.3186 219.545 48.6123 220.449C48.7306 220.973 48.8715 221.507 49.0127 222.042L49.0128 222.042L49.0129 222.042L49.013 222.043L49.0131 222.043L49.0131 222.043L49.0132 222.044L49.0133 222.044L49.0134 222.044C49.7376 224.786 50.4681 227.552 48.1933 229.258ZM224.55 148.607C229.396 149.497 233.948 148.565 237.502 145.955C239.256 144.718 241.278 143.882 243.3 143.045C244.182 142.681 245.064 142.316 245.924 141.918L244.47 144.947L244.174 145.14L243.689 145.456L243.689 145.456C242.891 145.976 242.092 146.497 241.281 147.015L241.038 147.171C237.148 149.665 233.257 152.16 230.816 156.525C225.259 156.293 221.432 159.122 217.49 162.036C216.709 162.613 215.924 163.193 215.12 163.754C218.207 166.787 220.193 166.83 222.15 165.091C224.074 163.383 226.105 161.825 228.142 160.263C228.996 159.608 229.85 158.953 230.699 158.285C231.543 157.874 232.388 157.464 233.233 157.054C234.925 156.232 236.616 155.411 238.303 154.582C239.959 153.771 241.619 152.967 243.28 152.164C247.467 150.138 251.655 148.112 255.762 145.957C259.63 143.926 263.351 141.632 267.069 139.34C267.343 139.172 267.616 139.003 267.89 138.834C268.25 138.611 268.427 138.093 268.604 137.576C268.68 137.354 268.756 137.133 268.846 136.934C267.773 137.2 266.691 137.446 265.609 137.692L265.609 137.692L265.608 137.693L265.608 137.693L265.608 137.693L265.607 137.693L265.607 137.693L265.607 137.693L265.606 137.693L265.606 137.693L265.605 137.693C263.119 138.259 260.631 138.825 258.253 139.629C254.986 140.731 251.804 142.017 248.622 143.303L248.621 143.304L248.621 143.304L248.62 143.304L248.619 143.304L248.619 143.305L248.618 143.305L248.617 143.305L248.617 143.305L248.616 143.306L248.616 143.306C247.238 143.863 245.861 144.419 244.478 144.96L245.932 141.931L272.293 132.046L272.335 131.987L275.717 131.193C276.174 132.282 276.613 133.332 277.047 134.372C277.997 136.645 278.926 138.868 279.977 141.337C279.4 141.576 278.835 141.874 278.268 142.172C277.019 142.83 275.76 143.493 274.345 143.543C267.879 143.782 262.989 146.835 258.255 150.404C256.829 151.476 255.216 152.28 253.603 153.085C252.801 153.485 251.999 153.885 251.219 154.318C249.648 155.193 248.091 156.094 246.535 156.995C240.978 160.211 235.424 163.426 229.185 165.458C227.666 165.954 226.374 166.941 225.078 167.933C224.109 168.675 223.137 169.418 222.064 169.96C216.387 172.824 210.655 175.585 204.922 178.347L204.917 178.349C202.699 179.418 200.481 180.486 198.266 181.561C196.535 184.472 193.737 185.751 190.926 187.036C188.871 187.975 186.809 188.917 185.153 190.503C183.7 191.892 181.729 192.6 179.749 193.311C178.671 193.698 177.591 194.086 176.59 194.586C174.709 195.521 172.857 196.51 171.005 197.5L171.005 197.5L171.004 197.5L171.004 197.501L171.003 197.501L171.003 197.501C168.119 199.042 165.236 200.583 162.246 201.916C160.28 202.795 158.194 203.446 156.108 204.097C154.226 204.685 152.344 205.272 150.549 206.027C148.744 206.783 147.127 207.921 145.516 209.054L145.516 209.054L145.515 209.055L145.515 209.055L145.514 209.056L145.514 209.056L145.513 209.056L145.513 209.057C145.041 209.388 144.571 209.72 144.096 210.041C143.528 210.433 143.018 210.895 142.51 211.357C141.217 212.531 139.93 213.699 137.722 213.68C136.465 213.67 135.71 214.578 134.909 215.541C134.066 216.555 133.172 217.63 131.587 217.76C129.622 217.919 127.908 218.956 126.193 219.993C125.438 220.45 124.684 220.906 123.909 221.287C123.641 221.42 123.351 221.529 123.061 221.638C121.753 222.129 120.451 222.617 121.262 225.263C121.379 225.646 120.229 226.272 119.573 226.62C117.936 227.48 116.277 228.303 114.618 229.126C114.004 229.43 113.39 229.735 112.777 230.041L116.707 225.832L115.998 224.772L105.735 230.159L105.735 230.159L115.985 224.78L116.694 225.841L112.764 230.049L108.084 232.366L108.083 232.366C106.361 233.005 104.672 233.701 102.981 234.397C100.302 235.501 97.6201 236.606 94.8005 237.488C91.7373 238.448 89.1061 240.4 86.4723 242.353C85.242 243.266 84.0109 244.179 82.7352 244.992C78.0433 247.946 73.3191 250.848 68.5578 253.683C67.7261 254.122 66.7323 254.236 65.6958 254.011C62.2715 253.247 59.7507 254.64 57.5836 256.48C51.136 261.943 44.8015 267.588 38.5295 273.29C34.5922 276.868 33.6715 276.582 30.6809 270.205L32.0547 264.974L26.9788 268.203L21.8139 261.395C22.0148 261.189 22.2385 260.952 22.4813 260.694C23.1241 260.012 23.8999 259.189 24.7352 258.443C27.2463 256.198 29.7701 253.972 32.2955 251.744C34.586 249.723 36.8778 247.701 39.1626 245.664C41.213 243.83 43.0346 241.881 42.8695 238.111C42.8146 236.872 43.5543 235.75 44.215 234.747C44.2898 234.634 44.3636 234.522 44.4351 234.412C45.2477 233.15 46.1478 231.974 47.0479 230.798C47.4416 230.283 47.8354 229.768 48.2219 229.247C48.326 229.305 48.4426 229.389 48.559 229.472C48.8048 229.647 49.0498 229.822 49.175 229.765L49.3823 229.673C54.5484 227.385 59.7128 225.098 61.1465 218.116C61.3168 217.29 61.7098 216.582 62.1032 215.874C62.2563 215.598 62.4094 215.322 62.5494 215.039C64.0425 217.035 65.3507 217.313 66.9213 216.062C68.8021 214.565 70.7379 213.147 72.6735 211.729C74.6846 210.256 76.6955 208.782 78.6438 207.222C83.7557 203.118 88.7801 198.892 93.7168 194.545C94.4315 193.912 94.8677 192.919 95.305 191.923C95.5087 191.459 95.7127 190.995 95.9451 190.566L95.8935 188.677L104.778 180.858C104.939 181.006 105.101 181.153 105.263 181.299L105.263 181.3L105.263 181.3L105.419 181.441C105.529 181.541 105.639 181.641 105.749 181.742L103.688 186.422C112.409 177.447 123.436 171.116 134.482 164.774C135.632 164.114 136.782 163.454 137.93 162.79C148.933 156.427 160.095 150.314 171.471 144.601C176.352 142.154 181.382 139.978 186.412 137.803C191.036 135.803 195.659 133.804 200.166 131.593C204.164 129.643 207.947 127.304 211.73 124.965C213.49 123.877 215.25 122.789 217.031 121.74C217.652 121.374 218.292 121.039 218.932 120.704C219.271 120.527 219.61 120.349 219.946 120.167L233.878 111.749L243.44 106.186C242.624 109.449 234.269 115.45 229.501 117.239L225.451 120.808L225.427 120.825C224.963 121.153 224.568 121.432 224.224 121.659C224.575 121.427 224.979 121.142 225.455 120.806L225.457 120.804C226.388 120.458 227.322 120.116 228.255 119.773L228.255 119.773L228.256 119.773L228.256 119.773L228.257 119.773L228.257 119.773L228.257 119.772L228.258 119.772C230.574 118.923 232.892 118.073 235.176 117.161C236.396 116.676 237.552 116.063 238.706 115.451C239.1 115.242 239.493 115.034 239.889 114.83L236.457 124.559L232.134 128.179C231.712 128.391 231.296 128.624 230.878 128.858L230.877 128.858L230.877 128.858L230.876 128.859L230.876 128.859L230.875 128.859L230.875 128.859L230.874 128.86C229.942 129.382 229.001 129.908 227.975 130.219C226.841 130.563 226.852 131.831 226.862 133.077C226.874 134.521 226.886 135.936 225.118 135.85C222.52 135.707 221.253 137.462 219.96 139.252L219.867 139.38C218.358 139.926 216.857 140.49 215.356 141.055L215.355 141.055L215.355 141.055C211.975 142.327 208.595 143.598 205.119 144.651C201.57 145.726 198.253 147.255 194.937 148.783C192.975 149.687 191.014 150.591 189.005 151.401C188.686 151.529 188.366 151.657 188.047 151.785C184.202 153.326 180.331 154.879 176.873 157.079C169.363 161.87 162.109 167.072 154.864 172.274C148.523 176.83 142.274 181.518 136.115 186.337C134.39 187.693 132.84 189.293 131.293 190.89C130.575 191.631 129.858 192.371 129.125 193.086L129.97 194.265L139.877 189.04L155.05 181.056L154.234 183.587C150.571 186.1 146.689 188.266 142.805 190.435L142.804 190.435L142.804 190.435L142.804 190.435L142.803 190.436L142.803 190.436C136.759 193.809 130.707 197.187 125.454 201.883L127.491 202.051C127.501 202.065 127.511 202.079 127.521 202.092C129.269 201.005 131.013 199.92 132.785 198.878C140.049 194.655 147.321 190.438 154.614 186.263C155.354 185.839 156.183 185.564 157.013 185.289C157.399 185.161 157.786 185.033 158.163 184.889L158.163 184.89L178.697 173.523C178.484 173.859 178.273 174.197 178.063 174.536C176.26 177.427 174.458 180.319 171.431 181.83C170.661 182.19 169.892 182.55 169.122 182.91L169.116 182.913L169.109 182.916C166.025 184.361 162.94 185.805 159.82 187.179C159.362 187.385 158.781 187.357 158.2 187.328C157.939 187.315 157.677 187.302 157.427 187.31L157.427 187.31C156.468 187.811 155.508 188.31 154.547 188.81L154.544 188.812C152.604 189.82 150.665 190.828 148.733 191.853C148.403 192.026 148.046 192.174 147.689 192.322C146.84 192.673 145.987 193.026 145.481 193.726C143.049 197.05 139.465 198.392 135.884 199.733C133.532 200.613 131.181 201.494 129.159 202.934C129.009 203.028 128.751 202.962 128.492 202.897C128.373 202.866 128.254 202.836 128.145 202.821L128.13 202.807L128.107 202.785L119.787 208.529C123.697 209.37 125.771 208.409 127.816 207.186C128.142 206.991 128.468 206.795 128.794 206.599L128.795 206.598L128.796 206.597L128.797 206.597C131.049 205.239 133.318 203.872 135.824 203.052C137.557 202.479 139.409 202.13 141.255 201.781C144.037 201.256 146.808 200.733 149.15 199.453C150.863 198.519 152.619 197.65 154.377 196.779L154.378 196.779L154.379 196.779L154.379 196.778L154.38 196.778L154.38 196.778L154.381 196.777L154.382 196.777C159.988 194.002 165.611 191.218 169.887 186.333C170.244 186.046 170.645 185.823 171.08 185.669C171.29 186.481 171.464 187.165 171.834 188.622L176.027 184.19C174.12 184.931 172.65 184.236 171.45 181.867C174.471 180.374 176.265 177.491 178.058 174.609C178.277 174.259 178.495 173.908 178.715 173.56L184.525 170.907C184.936 170.864 185.372 170.862 185.807 170.86C186.739 170.856 187.67 170.852 188.359 170.444C199.168 164.005 209.921 157.482 220.673 150.959L220.677 150.957C221.968 150.174 223.259 149.39 224.55 148.607ZM62.4759 214.811C62.5089 214.835 62.5421 214.859 62.5755 214.883L62.6236 214.886C62.5994 214.938 62.5746 214.989 62.5494 215.039C62.5127 214.99 62.4759 214.94 62.439 214.889L62.4002 214.887L62.4759 214.811ZM62.4759 214.811C60.7828 213.597 59.621 213.779 59.0042 215.6C58.6155 216.902 58.1347 218.144 57.5656 219.317C56.0243 222.215 53.3201 221.542 50.6186 220.869C49.9506 220.703 49.2827 220.536 48.6326 220.424C48.3389 219.52 48.0447 218.622 47.7477 217.72C48.3237 217.439 48.9023 217.161 49.4809 216.883L49.4816 216.883L49.4822 216.883L49.4828 216.882L49.4834 216.882L49.484 216.882L49.4846 216.882L49.4852 216.881L49.4858 216.881L49.4865 216.881L49.4871 216.88L49.4877 216.88L49.4883 216.88C50.7203 216.288 51.9529 215.697 53.1634 215.066C56.1153 213.525 58.73 211.475 61.3496 209.42C64.7104 206.785 68.0793 204.143 72.1785 202.562C75.0971 201.433 77.5805 199.417 80.067 197.399C81.318 196.383 82.5697 195.367 83.8782 194.462C84.3427 194.144 84.9679 194.069 85.5925 193.994C85.8494 193.963 86.1061 193.932 86.3516 193.885C88.863 191.008 91.6222 188.565 95.873 188.701L95.9247 190.59L86.1442 195.256C85.5089 195.931 84.8762 196.609 84.2437 197.286C82.1582 199.519 80.0743 201.751 77.8987 203.873C77.7767 203.992 77.6545 204.113 77.532 204.234L77.4608 204.304L77.4604 204.304L77.46 204.305L77.4596 204.305C76.018 205.729 74.5232 207.204 72.6926 207.885C68.6988 209.369 65.443 211.834 62.4759 214.811ZM99.4769 196.85L99.4799 196.853C99.5633 196.961 99.6468 197.068 99.7294 197.176C101.675 196.023 103.638 194.897 105.6 193.771L105.6 193.77L105.601 193.77L105.601 193.77L105.601 193.77L105.602 193.769C109.938 191.28 114.275 188.791 118.432 186.024C123.508 182.643 128.5 179.133 133.492 175.624C138.524 172.087 143.556 168.55 148.671 165.145C151.558 163.222 154.643 161.609 157.729 159.996C159.581 159.028 161.434 158.06 163.244 157.024C166.636 155.082 169.987 153.07 173.58 150.914C175.289 149.888 177.054 148.829 178.903 147.729C174.909 146.611 172.327 146.632 170.115 148.458C168.261 149.939 166.285 151.245 164.199 152.366C161.525 153.851 158.811 155.276 156.098 156.7C150.92 159.418 145.741 162.136 140.835 165.282C130.798 171.723 121.119 178.745 111.498 185.827C108.497 188.031 105.722 190.591 102.948 193.151C101.715 194.288 100.483 195.426 99.2303 196.531C99.2671 196.579 99.3039 196.627 99.3409 196.675C99.3861 196.733 99.4315 196.791 99.4769 196.85ZM98.937 205.023C99.8778 204.438 100.962 204.058 102.245 203.962C102.245 203.962 102.245 203.962 102.245 203.962L102.252 203.958C100.964 204.056 99.8781 204.438 98.937 205.023ZM111.567 208.863C111.796 209.273 112.024 209.683 112.249 210.096C115.631 209.389 118.316 207.16 119.785 203.842L111.567 208.863ZM155.077 181.1L154.261 183.63C161.69 179.722 169.131 175.832 176.584 171.962C178.641 170.89 180.718 169.854 182.796 168.818C183.838 168.298 184.881 167.777 185.922 167.253C191.076 164.435 196.223 161.608 201.363 158.772C204.05 157.292 206.736 155.808 209.423 154.325L209.424 154.324C214.244 151.663 219.064 149.001 223.892 146.357C224.344 146.211 224.83 146.149 225.336 146.173C227.169 145.233 229.004 144.296 230.84 143.359C234.526 141.479 238.212 139.597 241.878 137.686C253.857 131.413 265.841 125.148 277.831 118.891L277.836 118.869C279.145 118.369 280.455 117.879 281.765 117.39L281.765 117.39L281.766 117.39L281.766 117.39L281.767 117.39L281.767 117.39L281.767 117.389L281.768 117.389L281.768 117.389L281.769 117.389L281.769 117.389L281.769 117.389C285.059 116.16 288.346 114.933 291.607 113.535C293.562 112.697 295.641 112.112 297.744 111.52C300.558 110.728 303.412 109.924 306.061 108.49C305.708 108.159 305.435 107.878 305.224 107.661L305.223 107.66L305.223 107.659C304.892 107.319 304.714 107.135 304.611 107.158C296.132 108.966 287.659 110.786 279.191 112.618L279.186 112.641C277.46 113.38 275.729 114.111 273.998 114.841C269.182 116.873 264.367 118.904 259.651 121.127C255.281 123.189 251.007 125.43 246.733 127.672L246.733 127.672L246.733 127.672L246.732 127.672L246.732 127.672L246.731 127.672L246.731 127.673L246.731 127.673C244.854 128.657 242.977 129.641 241.093 130.61L241.09 130.611L243.514 126.006C241.029 125.6 239.54 126.184 238.931 128.256C238.689 129.069 238.54 129.939 238.39 130.809C238.326 131.184 238.262 131.559 238.19 131.929L231.574 135.539L231.571 135.541L233.248 131.718L230.641 130.404L232.135 128.202C231.709 128.417 231.293 128.649 230.878 128.882L230.877 128.882C229.946 129.403 229.015 129.924 227.976 130.243C226.842 130.586 226.853 131.854 226.863 133.101C226.875 134.545 226.887 135.96 225.119 135.874C222.514 135.742 221.239 137.506 219.938 139.306L219.868 139.404L218.415 142.45L218.419 142.448C218.3 145.956 216.342 147.355 213.866 148.684C198.369 156.979 182.952 165.414 167.536 173.85L167.535 173.85L167.521 173.858C163.998 175.786 160.476 177.713 156.952 179.639C156.29 180.072 155.663 180.56 155.077 181.1ZM239.893 114.852L236.461 124.581C239.151 124.667 240.969 123.986 240.222 120.086C240.028 119.055 240.907 117.734 241.709 117.174C244.167 115.411 246.765 113.862 249.487 112.535C256.169 109.396 262.885 106.328 269.601 103.259L269.602 103.259C273.037 101.689 276.472 100.12 279.902 98.5417C280.171 98.4165 280.464 98.3203 280.763 98.2223C281.934 97.8373 283.191 97.4243 283.484 95.113C283.061 95.1559 282.688 95.1732 282.354 95.1886C281.74 95.217 281.259 95.2393 280.845 95.4033C279.035 96.1054 277.212 96.7852 275.389 97.4651C270.6 99.2509 265.811 101.037 261.243 103.23C256.14 105.667 251.228 108.456 246.316 111.244C244.18 112.456 242.044 113.668 239.893 114.852Z" fill="#F28C22"/>
<path fill-rule="evenodd" clip-rule="evenodd" d="M547.193 1077.26C546.807 1077.78 546.413 1078.29 546.019 1078.81C545.119 1079.99 544.219 1081.16 543.407 1082.42C543.335 1082.53 543.261 1082.65 543.186 1082.76C542.526 1083.76 541.786 1084.88 541.841 1086.12C542.006 1089.89 540.184 1091.84 538.134 1093.68C535.777 1095.78 533.41 1097.87 531.042 1099.96L531.041 1099.96L531.041 1099.96L531.04 1099.96L531.04 1099.96C528.594 1102.12 526.146 1104.28 523.707 1106.45C522.842 1107.23 522.033 1108.09 521.379 1108.78C521.163 1109.01 520.964 1109.22 520.785 1109.41L525.95 1116.21L521.104 1122.52L516.646 1120.45C516.015 1117.57 515.495 1115.22 514.899 1112.53C516.206 1111.39 517.522 1110.25 518.838 1109.12C526.059 1102.88 533.308 1096.62 539.421 1088.93L530.386 1094.55C529.722 1094.18 528.77 1093.68 527.884 1093.22L527.784 1093.17L514.743 1101.15C513.828 1096.68 515.567 1094.91 517.19 1093.27C517.626 1092.83 518.054 1092.39 518.42 1091.92C519.692 1090.26 521.119 1088.77 522.748 1087.06C523.525 1086.25 524.348 1085.38 525.222 1084.43L521.915 1085.03C528.387 1076.01 536.836 1069.63 545.467 1063.18C545.736 1063.72 545.976 1064.21 546.204 1064.68L546.207 1064.68C546.385 1065.05 546.556 1065.4 546.727 1065.75C547.024 1066.65 547.319 1067.54 547.612 1068.45C547.731 1068.97 547.872 1069.51 548.013 1070.04L548.013 1070.04L548.013 1070.04L548.013 1070.04L548.013 1070.04L548.013 1070.04L548.013 1070.04L548.013 1070.04L548.013 1070.04C548.738 1072.79 549.468 1075.55 547.193 1077.26ZM723.55 996.607C728.396 997.497 732.948 996.565 736.502 993.955C738.256 992.718 740.278 991.882 742.3 991.045C743.182 990.681 744.064 990.316 744.924 989.918L743.47 992.947L743.174 993.14L742.689 993.456L742.689 993.456C741.891 993.976 741.092 994.497 740.281 995.015L740.038 995.171C736.148 997.665 732.257 1000.16 729.816 1004.53C724.259 1004.29 720.432 1007.12 716.49 1010.04C715.709 1010.61 714.924 1011.19 714.12 1011.75C717.207 1014.79 719.193 1014.83 721.15 1013.09C723.074 1011.38 725.105 1009.83 727.142 1008.26C727.995 1007.61 728.85 1006.95 729.698 1006.29C730.543 1005.87 731.388 1005.46 732.233 1005.05C733.925 1004.23 735.616 1003.41 737.303 1002.58C738.959 1001.77 740.619 1000.97 742.28 1000.16C746.467 998.138 750.655 996.112 754.762 993.957C758.63 991.926 762.351 989.632 766.069 987.34C766.343 987.172 766.616 987.003 766.89 986.834C767.25 986.611 767.427 986.093 767.604 985.576C767.68 985.354 767.756 985.133 767.846 984.934C766.773 985.2 765.691 985.446 764.609 985.692L764.609 985.692L764.608 985.693L764.608 985.693L764.608 985.693L764.607 985.693L764.607 985.693L764.607 985.693L764.606 985.693L764.606 985.693L764.605 985.693C762.119 986.259 759.631 986.825 757.253 987.629C753.986 988.731 750.804 990.017 747.622 991.303L747.621 991.304L747.621 991.304L747.62 991.304L747.619 991.304L747.619 991.305L747.618 991.305L747.617 991.305L747.617 991.305L747.616 991.306L747.616 991.306C746.238 991.863 744.861 992.419 743.478 992.96L744.932 989.931L771.293 980.046L771.335 979.987L774.717 979.193C775.174 980.282 775.613 981.332 776.047 982.372C776.997 984.645 777.926 986.868 778.976 989.337C778.4 989.576 777.835 989.874 777.268 990.172C776.019 990.83 774.76 991.493 773.345 991.543C766.879 991.782 761.989 994.835 757.255 998.404C755.829 999.476 754.216 1000.28 752.603 1001.08C751.801 1001.48 750.999 1001.88 750.219 1002.32C748.648 1003.19 747.091 1004.09 745.535 1004.99C739.978 1008.21 734.424 1011.43 728.185 1013.46C726.666 1013.95 725.374 1014.94 724.078 1015.93C723.109 1016.67 722.136 1017.42 721.064 1017.96C715.387 1020.82 709.655 1023.59 703.922 1026.35L703.917 1026.35C701.699 1027.42 699.481 1028.49 697.266 1029.56C695.535 1032.47 692.737 1033.75 689.926 1035.04C687.871 1035.98 685.809 1036.92 684.153 1038.5C682.7 1039.89 680.729 1040.6 678.749 1041.31C677.671 1041.7 676.591 1042.09 675.59 1042.59C673.709 1043.52 671.857 1044.51 670.005 1045.5L670.005 1045.5L670.004 1045.5L670.004 1045.5L670.003 1045.5L670.003 1045.5C667.119 1047.04 664.236 1048.58 661.246 1049.92C659.28 1050.79 657.194 1051.45 655.108 1052.1C653.226 1052.68 651.344 1053.27 649.549 1054.03C647.744 1054.78 646.127 1055.92 644.516 1057.05L644.516 1057.05L644.515 1057.05L644.515 1057.06L644.514 1057.06L644.514 1057.06L644.513 1057.06L644.513 1057.06C644.041 1057.39 643.571 1057.72 643.096 1058.04C642.528 1058.43 642.018 1058.9 641.51 1059.36C640.217 1060.53 638.93 1061.7 636.722 1061.68C635.465 1061.67 634.71 1062.58 633.909 1063.54C633.066 1064.56 632.172 1065.63 630.587 1065.76C628.622 1065.92 626.907 1066.96 625.193 1067.99C624.438 1068.45 623.684 1068.91 622.909 1069.29C622.641 1069.42 622.351 1069.53 622.061 1069.64C620.753 1070.13 619.451 1070.62 620.262 1073.26C620.379 1073.65 619.229 1074.27 618.573 1074.62C616.936 1075.48 615.277 1076.3 613.618 1077.13C613.004 1077.43 612.39 1077.74 611.777 1078.04L615.707 1073.83L614.998 1072.77L604.735 1078.16L604.735 1078.16L614.985 1072.78L615.694 1073.84L611.764 1078.05L607.084 1080.37L607.083 1080.37C605.361 1081 603.672 1081.7 601.981 1082.4C599.302 1083.5 596.62 1084.61 593.801 1085.49C590.737 1086.45 588.106 1088.4 585.472 1090.35C584.242 1091.27 583.011 1092.18 581.735 1092.99C577.043 1095.95 572.319 1098.85 567.558 1101.68C566.726 1102.12 565.732 1102.24 564.696 1102.01C561.271 1101.25 558.751 1102.64 556.584 1104.48C550.136 1109.94 543.801 1115.59 537.529 1121.29C533.592 1124.87 532.672 1124.58 529.681 1118.2L531.055 1112.97L525.979 1116.2L520.814 1109.39C521.015 1109.19 521.239 1108.95 521.481 1108.69C522.124 1108.01 522.9 1107.19 523.735 1106.44C526.246 1104.2 528.77 1101.97 531.296 1099.74C533.586 1097.72 535.878 1095.7 538.163 1093.66C540.213 1091.83 542.035 1089.88 541.869 1086.11C541.815 1084.87 542.554 1083.75 543.215 1082.75C543.29 1082.63 543.364 1082.52 543.435 1082.41C544.248 1081.15 545.148 1079.97 546.048 1078.8C546.442 1078.28 546.835 1077.77 547.222 1077.25C547.326 1077.31 547.443 1077.39 547.559 1077.47C547.805 1077.65 548.05 1077.82 548.175 1077.76L548.382 1077.67C553.548 1075.39 558.713 1073.1 560.146 1066.12C560.317 1065.29 560.71 1064.58 561.103 1063.87C561.256 1063.6 561.409 1063.32 561.549 1063.04C563.043 1065.04 564.351 1065.31 565.921 1064.06C567.802 1062.57 569.738 1061.15 571.673 1059.73C573.685 1058.26 575.695 1056.78 577.644 1055.22C582.756 1051.12 587.78 1046.89 592.717 1042.55C593.431 1041.91 593.868 1040.92 594.305 1039.92C594.509 1039.46 594.713 1038.99 594.945 1038.57L594.893 1036.68L603.778 1028.86C603.939 1029.01 604.101 1029.15 604.263 1029.3L604.263 1029.3L604.263 1029.3L604.419 1029.44C604.529 1029.54 604.639 1029.64 604.749 1029.74L602.688 1034.42C611.409 1025.45 622.436 1019.12 633.482 1012.77C634.632 1012.11 635.782 1011.45 636.93 1010.79C647.933 1004.43 659.095 998.314 670.471 992.601C675.352 990.154 680.382 987.978 685.412 985.803C690.036 983.803 694.659 981.804 699.166 979.593C703.164 977.643 706.947 975.304 710.73 972.965C712.49 971.877 714.25 970.789 716.031 969.74C716.652 969.374 717.292 969.039 717.932 968.704C718.271 968.527 718.61 968.349 718.946 968.167L732.877 959.749L742.44 954.186C741.624 957.449 733.269 963.45 728.501 965.239L724.451 968.808L724.427 968.825C723.963 969.153 723.568 969.432 723.224 969.659C723.575 969.427 723.979 969.142 724.455 968.806L724.457 968.804C725.388 968.458 726.321 968.116 727.255 967.773L727.255 967.773L727.256 967.773L727.256 967.773L727.256 967.773L727.257 967.773L727.257 967.772L727.258 967.772C729.574 966.923 731.892 966.073 734.176 965.161C735.396 964.676 736.552 964.063 737.706 963.451C738.099 963.242 738.493 963.034 738.889 962.83L735.457 972.559L731.134 976.179C730.712 976.391 730.296 976.624 729.878 976.858L729.877 976.858L729.877 976.858L729.876 976.859L729.876 976.859L729.875 976.859L729.875 976.859L729.874 976.86C728.942 977.382 728.001 977.908 726.975 978.219C725.841 978.563 725.852 979.831 725.862 981.077C725.874 982.521 725.886 983.936 724.118 983.85C721.52 983.707 720.253 985.462 718.96 987.252L718.867 987.38C717.358 987.926 715.857 988.49 714.356 989.055L714.355 989.055L714.355 989.055C710.975 990.327 707.595 991.598 704.119 992.651C700.57 993.726 697.253 995.255 693.937 996.783C691.975 997.687 690.014 998.591 688.005 999.401C687.686 999.529 687.366 999.657 687.047 999.785C683.202 1001.33 679.331 1002.88 675.873 1005.08C668.363 1009.87 661.109 1015.07 653.864 1020.27C647.523 1024.83 641.274 1029.52 635.115 1034.34C633.39 1035.69 631.84 1037.29 630.293 1038.89C629.575 1039.63 628.858 1040.37 628.125 1041.09L628.97 1042.27L638.877 1037.04L654.05 1029.06L653.234 1031.59C649.571 1034.1 645.689 1036.27 641.805 1038.43L641.804 1038.43L641.804 1038.44L641.804 1038.44L641.803 1038.44L641.803 1038.44C635.759 1041.81 629.707 1045.19 624.454 1049.88L626.491 1050.05C626.501 1050.06 626.511 1050.08 626.52 1050.09C628.269 1049.01 630.013 1047.92 631.785 1046.88C639.049 1042.65 646.321 1038.44 653.614 1034.26C654.354 1033.84 655.183 1033.56 656.013 1033.29C656.399 1033.16 656.786 1033.03 657.163 1032.89L657.163 1032.89L677.697 1021.52C677.484 1021.86 677.273 1022.2 677.062 1022.54C675.26 1025.43 673.458 1028.32 670.431 1029.83C669.661 1030.19 668.892 1030.55 668.122 1030.91L668.116 1030.91L668.109 1030.92C665.025 1032.36 661.94 1033.8 658.82 1035.18C658.362 1035.39 657.781 1035.36 657.2 1035.33C656.939 1035.31 656.677 1035.3 656.427 1035.31L656.427 1035.31C655.468 1035.81 654.508 1036.31 653.547 1036.81L653.543 1036.81C651.604 1037.82 649.665 1038.83 647.733 1039.85C647.403 1040.03 647.046 1040.17 646.689 1040.32C645.84 1040.67 644.987 1041.03 644.481 1041.73C642.049 1045.05 638.464 1046.39 634.884 1047.73C632.532 1048.61 630.181 1049.49 628.159 1050.93C628.009 1051.03 627.751 1050.96 627.492 1050.9C627.373 1050.87 627.254 1050.84 627.144 1050.82L627.13 1050.81L627.107 1050.78L618.787 1056.53C622.697 1057.37 624.771 1056.41 626.816 1055.19C627.142 1054.99 627.468 1054.8 627.794 1054.6L627.795 1054.6L627.796 1054.6L627.797 1054.6C630.049 1053.24 632.318 1051.87 634.824 1051.05C636.557 1050.48 638.409 1050.13 640.255 1049.78C643.037 1049.26 645.808 1048.73 648.15 1047.45C649.863 1046.52 651.619 1045.65 653.377 1044.78L653.378 1044.78L653.379 1044.78L653.379 1044.78L653.38 1044.78L653.38 1044.78L653.381 1044.78L653.382 1044.78C658.988 1042 664.611 1039.22 668.887 1034.33C669.244 1034.05 669.645 1033.82 670.08 1033.67C670.29 1034.48 670.464 1035.17 670.834 1036.62L675.027 1032.19C673.12 1032.93 671.65 1032.24 670.45 1029.87C673.471 1028.37 675.265 1025.49 677.058 1022.61C677.277 1022.26 677.495 1021.91 677.715 1021.56L683.525 1018.91C683.936 1018.86 684.372 1018.86 684.807 1018.86C685.739 1018.86 686.67 1018.85 687.359 1018.44C698.168 1012.01 708.921 1005.48 719.673 998.959L719.677 998.957C720.968 998.174 722.259 997.39 723.55 996.607ZM561.476 1062.81C561.509 1062.83 561.542 1062.86 561.575 1062.88L561.624 1062.89C561.599 1062.94 561.575 1062.99 561.549 1063.04C561.513 1062.99 561.476 1062.94 561.439 1062.89L561.4 1062.89L561.476 1062.81ZM561.476 1062.81C559.783 1061.6 558.621 1061.78 558.004 1063.6C557.615 1064.9 557.135 1066.14 556.566 1067.32C555.024 1070.22 552.32 1069.54 549.619 1068.87C548.951 1068.7 548.283 1068.54 547.633 1068.42C547.339 1067.52 547.045 1066.62 546.748 1065.72C547.324 1065.44 547.902 1065.16 548.481 1064.88L548.482 1064.88L548.482 1064.88L548.483 1064.88L548.483 1064.88L548.484 1064.88L548.485 1064.88L548.485 1064.88L548.486 1064.88L548.486 1064.88L548.487 1064.88L548.488 1064.88L548.488 1064.88C549.72 1064.29 550.953 1063.7 552.163 1063.07C555.115 1061.53 557.73 1059.47 560.35 1057.42C563.71 1054.78 567.079 1052.14 571.178 1050.56C574.097 1049.43 576.58 1047.42 579.067 1045.4C580.318 1044.38 581.57 1043.37 582.878 1042.46C583.343 1042.14 583.968 1042.07 584.592 1041.99C584.849 1041.96 585.106 1041.93 585.352 1041.88C587.863 1039.01 590.622 1036.57 594.873 1036.7L594.925 1038.59L585.144 1043.26C584.509 1043.93 583.876 1044.61 583.244 1045.29C581.158 1047.52 579.074 1049.75 576.899 1051.87C576.777 1051.99 576.655 1052.11 576.532 1052.23L576.461 1052.3L576.46 1052.3L576.46 1052.3L576.46 1052.31C575.018 1053.73 573.523 1055.2 571.693 1055.89C567.699 1057.37 564.443 1059.83 561.476 1062.81ZM598.477 1044.85L598.48 1044.85C598.563 1044.96 598.647 1045.07 598.729 1045.18C600.675 1044.02 602.638 1042.9 604.6 1041.77L604.6 1041.77L604.601 1041.77L604.601 1041.77L604.601 1041.77L604.602 1041.77C608.938 1039.28 613.275 1036.79 617.432 1034.02C622.507 1030.64 627.5 1027.13 632.492 1023.62C637.524 1020.09 642.555 1016.55 647.671 1013.15C650.558 1011.22 653.643 1009.61 656.729 1008C658.581 1007.03 660.434 1006.06 662.244 1005.02C665.636 1003.08 668.987 1001.07 672.58 998.914C674.289 997.888 676.054 996.829 677.903 995.729C673.909 994.611 671.327 994.632 669.115 996.458C667.261 997.939 665.285 999.245 663.199 1000.37C660.525 1001.85 657.811 1003.28 655.098 1004.7C649.919 1007.42 644.741 1010.14 639.835 1013.28C629.798 1019.72 620.119 1026.75 610.498 1033.83C607.497 1036.03 604.722 1038.59 601.948 1041.15C600.715 1042.29 599.482 1043.43 598.23 1044.53C598.267 1044.58 598.304 1044.63 598.341 1044.67C598.386 1044.73 598.431 1044.79 598.477 1044.85ZM597.937 1053.02C598.878 1052.44 599.962 1052.06 601.245 1051.96C601.245 1051.96 601.245 1051.96 601.245 1051.96L601.252 1051.96C599.964 1052.06 598.878 1052.44 597.937 1053.02ZM610.567 1056.86C610.796 1057.27 611.024 1057.68 611.249 1058.1C614.631 1057.39 617.316 1055.16 618.785 1051.84L610.567 1056.86ZM654.077 1029.1L653.261 1031.63C660.69 1027.72 668.131 1023.83 675.584 1019.96C677.641 1018.89 679.718 1017.85 681.796 1016.82C682.838 1016.3 683.881 1015.78 684.922 1015.25C690.076 1012.44 695.223 1009.61 700.362 1006.77C703.05 1005.29 705.736 1003.81 708.423 1002.33L708.424 1002.32C713.244 999.663 718.064 997.001 722.892 994.357C723.344 994.211 723.83 994.149 724.336 994.173C726.169 993.233 728.004 992.296 729.84 991.359C733.526 989.479 737.212 987.597 740.878 985.686C752.857 979.413 764.841 973.148 776.831 966.891L776.836 966.869C778.145 966.369 779.455 965.879 780.765 965.39L780.765 965.39L780.766 965.39L780.766 965.39L780.767 965.39L780.767 965.39L780.767 965.389L780.768 965.389L780.768 965.389L780.769 965.389L780.769 965.389L780.769 965.389C784.059 964.16 787.346 962.933 790.607 961.535C792.561 960.697 794.641 960.112 796.744 959.52C799.558 958.728 802.412 957.924 805.061 956.49C804.708 956.159 804.435 955.878 804.224 955.661L804.223 955.66L804.223 955.659C803.892 955.319 803.714 955.135 803.611 955.158C795.132 956.966 786.659 958.786 778.191 960.618L778.186 960.641C776.46 961.38 774.729 962.111 772.998 962.841C768.181 964.873 763.367 966.904 758.651 969.127C754.281 971.189 750.007 973.43 745.733 975.672L745.733 975.672L745.733 975.672L745.732 975.672L745.732 975.672L745.731 975.672L745.731 975.673L745.731 975.673C743.854 976.657 741.977 977.641 740.093 978.61L740.09 978.611L742.514 974.006C740.029 973.6 738.54 974.184 737.931 976.256C737.689 977.069 737.54 977.939 737.39 978.809C737.326 979.184 737.261 979.559 737.19 979.929L730.574 983.539L730.571 983.541L732.248 979.718L729.641 978.404L731.135 976.202C730.709 976.417 730.293 976.649 729.878 976.882L729.877 976.882C728.946 977.403 728.015 977.924 726.976 978.243C725.842 978.586 725.853 979.854 725.863 981.101C725.875 982.545 725.887 983.96 724.119 983.874C721.514 983.742 720.239 985.506 718.938 987.306L718.868 987.404L717.415 990.45L717.419 990.448C717.3 993.956 715.342 995.355 712.866 996.684C697.368 1004.98 681.952 1013.41 666.536 1021.85L666.535 1021.85L666.521 1021.86C662.998 1023.79 659.476 1025.71 655.952 1027.64C655.29 1028.07 654.663 1028.56 654.077 1029.1ZM738.893 962.852L735.461 972.581C738.151 972.667 739.969 971.986 739.222 968.086C739.028 967.055 739.907 965.734 740.709 965.174C743.167 963.411 745.765 961.862 748.487 960.535C755.168 957.396 761.885 954.328 768.601 951.259L768.602 951.259C772.037 949.689 775.472 948.12 778.901 946.542C779.171 946.416 779.464 946.32 779.763 946.222C780.934 945.837 782.191 945.424 782.484 943.113C782.061 943.156 781.688 943.173 781.354 943.189C780.74 943.217 780.259 943.239 779.845 943.403C778.035 944.105 776.212 944.785 774.389 945.465C769.6 947.251 764.811 949.037 760.243 951.23C755.14 953.667 750.228 956.456 745.316 959.244C743.18 960.456 741.044 961.668 738.893 962.852Z" fill="#F28C22"/>
<defs>
<filter id="filter0_bd_180_626" x="189" y="792" width="273" height="273" filterUnits="userSpaceOnUse" color-interpolation-filters="sRGB">
<feFlood flood-opacity="0" result="BackgroundImageFix"/>
<feGaussianBlur in="BackgroundImage" stdDeviation="15"/>
<feComposite in2="SourceAlpha" operator="in" result="effect1_backgroundBlur_180_626"/>
<feColorMatrix in="SourceAlpha" type="matrix" values="0 0 0 0 0 0 0 0 0 0 0 0 0 0 0 0 0 0 127 0" result="hardAlpha"/>
<feOffset dy="4"/>
<feGaussianBlur stdDeviation="60"/>
<feComposite in2="hardAlpha" operator="out"/>
<feColorMatrix type="matrix" values="0 0 0 0 0 0 0 0 0 0 0 0 0 0 0 0 0 0 0.1 0"/>
<feBlend mode="normal" in2="effect1_backgroundBlur_180_626" result="effect2_dropShadow_180_626"/>
<feBlend mode="normal" in="SourceGraphic" in2="effect2_dropShadow_180_626" result="shape"/>
</filter>
<filter id="filter1_bd_180_626" x="434" y="259" width="273" height="273" filterUnits="userSpaceOnUse" color-interpolation-filters="sRGB">
<feFlood flood-opacity="0" result="BackgroundImageFix"/>
<feGaussianBlur in="BackgroundImage" stdDeviation="15"/>
<feComposite in2="SourceAlpha" operator="in" result="effect1_backgroundBlur_180_626"/>
<feColorMatrix in="SourceAlpha" type="matrix" values="0 0 0 0 0 0 0 0 0 0 0 0 0 0 0 0 0 0 127 0" result="hardAlpha"/>
<feOffset dy="4"/>
<feGaussianBlur stdDeviation="60"/>
<feComposite in2="hardAlpha" operator="out"/>
<feColorMatrix type="matrix" values="0 0 0 0 0 0 0 0 0 0 0 0 0 0 0 0 0 0 0.1 0"/>
<feBlend mode="normal" in2="effect1_backgroundBlur_180_626" result="effect2_dropShadow_180_626"/>
<feBlend mode="normal" in="SourceGraphic" in2="effect2_dropShadow_180_626" result="shape"/>
</filter>
<filter id="filter2_bd_180_626" x="357" y="0" width="427" height="483.744" filterUnits="userSpaceOnUse" color-interpolation-filters="sRGB">
<feFlood flood-opacity="0" result="BackgroundImageFix"/>
<feGaussianBlur in="BackgroundImage" stdDeviation="15"/>
<feComposite in2="SourceAlpha" operator="in" result="effect1_backgroundBlur_180_626"/>
<feColorMatrix in="SourceAlpha" type="matrix" values="0 0 0 0 0 0 0 0 0 0 0 0 0 0 0 0 0 0 127 0" result="hardAlpha"/>
<feOffset dy="4"/>
<feGaussianBlur stdDeviation="60"/>
<feComposite in2="hardAlpha" operator="out"/>
<feColorMatrix type="matrix" values="0 0 0 0 0 0 0 0 0 0 0 0 0 0 0 0 0 0 0.1 0"/>
<feBlend mode="normal" in2="effect1_backgroundBlur_180_626" result="effect2_dropShadow_180_626"/>
<feBlend mode="normal" in="SourceGraphic" in2="effect2_dropShadow_180_626" result="shape"/>
</filter>
<filter id="filter3_d_180_626" x="365" y="8" width="411" height="338" filterUnits="userSpaceOnUse" color-interpolation-filters="sRGB">
<feFlood flood-opacity="0" result="BackgroundImageFix"/>
<feColorMatrix in="SourceAlpha" type="matrix" values="0 0 0 0 0 0 0 0 0 0 0 0 0 0 0 0 0 0 127 0" result="hardAlpha"/>
<feOffset dy="4"/>
<feGaussianBlur stdDeviation="60"/>
<feComposite in2="hardAlpha" operator="out"/>
<feColorMatrix type="matrix" values="0 0 0 0 0 0 0 0 0 0 0 0 0 0 0 0 0 0 0.2 0"/>
<feBlend mode="normal" in2="BackgroundImageFix" result="effect1_dropShadow_180_626"/>
<feBlend mode="normal" in="SourceGraphic" in2="effect1_dropShadow_180_626" result="shape"/>
</filter>
<linearGradient id="paint0_linear_180_626" x1="401.5" y1="1084" x2="401.5" y2="153" gradientUnits="userSpaceOnUse">
<stop offset="0.038685" stop-color="#2269F2"/>
<stop offset="0.965779" stop-color="#7FD6FC"/>
</linearGradient>
</defs>
</svg>