<svg width="50" height="50" viewBox="0 0 50 50" fill="none" xmlns="http://www.w3.org/2000/svg">
<rect x="7.49988" y="10" width="36.25" height="31.25" fill="#FFFAF3"/>
<path d="M23.2186 0H26.7814C30.5946 0 34.9329 1.57997 39.7964 4.73991C43.4642 7.60817 46.1222 10.9221 47.7702 14.6816C49.2567 18.2628 50 21.285 50 23.7482V25.8143C50 31.3563 47.7298 36.8498 43.1895 42.2946C37.9221 47.4315 31.8064 50 24.8425 50C16.1496 50 9.04831 45.9407 3.53854 37.8221C1.17951 33.4468 0 29.1444 0 24.9149C0 17.9468 2.85991 11.6675 8.57974 6.07681C13.9118 2.0256 18.7914 0 23.2186 0ZM11.682 21.6578V29.3875C11.682 33.6007 13.015 36.4123 15.681 37.8221C16.8767 38.5027 20.7222 38.7538 27.2176 38.5756C32.1942 38.5756 35.0541 38.0327 35.7974 36.947C37.4778 35.602 38.318 33.3738 38.318 30.2625V20.3209C38.318 16.3993 36.9365 13.8308 34.1735 12.6155L32.3316 12.0078L30.4653 11.8619H19.6801C15.8345 11.8619 13.2655 13.7417 11.9729 17.5012C11.779 18.6518 11.682 20.0373 11.682 21.6578ZM20.1163 14.244H30.4653C34.2139 14.244 36.0882 16.221 36.0882 20.175V30.7001C35.5873 34.3623 34.0604 36.1935 31.5075 36.1935H27.2176C25.2141 36.1935 23.0974 36.2421 20.8677 36.3393C17.1514 36.3393 14.9782 35.1564 14.348 32.7905C14.1541 31.4779 14.0572 29.5009 14.0572 26.8595V23.578C14.0572 18.6356 14.4531 16.1643 15.2448 16.1643C16.0365 14.8841 17.6604 14.244 20.1163 14.244ZM30.6108 18.2547C31.047 19.2432 31.5964 19.7375 32.2588 19.7375C32.9213 19.7375 33.4626 19.2432 33.8827 18.2547C33.6565 17.0556 33.0587 16.456 32.0892 16.456C31.1036 16.7639 30.6108 17.3635 30.6108 18.2547ZM18.2016 25.3768C18.2016 28.5691 20.0275 30.7892 23.6791 32.0369H26.636C30.1745 30.7568 31.9438 28.4881 31.9438 25.2309V24.9149C31.9438 23.0676 31.0066 21.3418 29.1323 19.7375C27.8559 18.8462 26.5309 18.4006 25.1575 18.4006H25.0121C21.9583 18.4006 19.8336 19.9806 18.6379 23.1405C18.4763 23.3512 18.3309 24.0966 18.2016 25.3768ZM25.0121 20.7584H25.1575C27.2904 20.7584 28.7203 21.9008 29.4474 24.1857C29.5444 24.3153 29.5928 24.6638 29.5928 25.2309C29.1243 28.2936 27.6458 29.825 25.1575 29.825C23.1863 29.825 21.7563 28.8365 20.8677 26.8595C20.7384 26.6975 20.6334 26.2032 20.5526 25.3768C20.9081 22.2978 22.3946 20.7584 25.0121 20.7584Z" fill="#2269F2"/>
</svg>
