<svg width="720" height="808" viewBox="0 0 720 808" fill="none" xmlns="http://www.w3.org/2000/svg">
<path d="M490 558C490 696.071 378.071 808 240 808L-6.10352e-05 808L1.55955e-06 92L245 92L470 92.0001C481.046 92.0001 490 100.954 490 112L490 558Z" fill="url(#paint0_linear_180_673)"/>
<path d="M163 455C163 593.071 274.929 705 413 705L553 705C569.569 705 583 691.569 583 675L583 122C583 105.431 569.569 92 553 92L373 92L183 92.0001C171.954 92.0001 163 100.954 163 112L163 455Z" fill="#C4C4C4"/>
<path fill-rule="evenodd" clip-rule="evenodd" d="M107.194 160.258C106.807 160.78 106.413 161.295 106.02 161.809C105.119 162.986 104.219 164.162 103.407 165.423C103.335 165.534 103.262 165.646 103.187 165.759C102.526 166.762 101.786 167.884 101.841 169.123C102.006 172.892 100.185 174.842 98.1343 176.675C95.7777 178.779 93.4107 180.867 91.0422 182.957L91.0417 182.957L91.0412 182.957L91.0407 182.958L91.0404 182.958C88.594 185.116 86.1461 187.276 83.7069 189.455C82.8425 190.227 82.0329 191.087 81.3797 191.781C81.1632 192.011 80.964 192.222 80.7856 192.406L85.9505 199.214L81.1045 205.518L76.6465 203.452C76.0149 200.573 75.4949 198.219 74.8989 195.533C76.2064 194.39 77.5218 193.254 78.8381 192.117C86.0596 185.881 93.3078 179.623 99.4212 171.931L90.3859 177.55C89.7221 177.176 88.7704 176.68 87.8844 176.218L87.7844 176.166L74.7429 184.151C73.8286 179.675 75.5672 177.914 77.1905 176.269C77.6266 175.827 78.0544 175.393 78.4202 174.918C79.6925 173.261 81.1192 171.766 82.7482 170.06C83.5249 169.246 84.3478 168.384 85.2218 167.434L81.915 168.032C88.3874 159.011 96.8359 152.628 105.467 146.179C105.736 146.724 105.976 147.214 106.204 147.679L106.207 147.684C106.385 148.048 106.556 148.397 106.728 148.745C107.025 149.647 107.319 150.545 107.612 151.449C107.731 151.973 107.872 152.507 108.013 153.042L108.013 153.042L108.013 153.042L108.013 153.043L108.013 153.043L108.013 153.043L108.013 153.044L108.014 153.044L108.014 153.044C108.738 155.786 109.468 158.552 107.194 160.258ZM283.55 79.6075C288.396 80.4974 292.948 79.5652 296.502 76.9549C298.257 75.7175 300.278 74.8816 302.3 74.0454C303.182 73.6807 304.064 73.3159 304.924 72.9177L303.47 75.9474L303.174 76.1399L302.689 76.4558L302.689 76.4562C301.891 76.976 301.092 77.4969 300.281 78.015L300.038 78.1707C296.149 80.6649 292.257 83.1604 289.817 87.525C284.26 87.2929 280.432 90.1221 276.49 93.0359C275.71 93.6128 274.925 94.1931 274.121 94.7536C277.207 97.7872 279.194 97.8302 281.15 96.0909C283.074 94.3825 285.105 92.8251 287.142 91.2631C287.996 90.6085 288.85 89.9531 289.699 89.2854C290.543 88.8742 291.388 88.4639 292.234 88.0536C293.925 87.2324 295.617 86.4112 297.303 85.5823C298.959 84.7708 300.62 83.9674 302.28 83.1639C306.467 81.1379 310.655 79.1119 314.762 76.9572C318.63 74.926 322.351 72.6325 326.07 70.3401C326.343 70.1715 326.617 70.0029 326.89 69.8344C327.25 69.6107 327.427 69.0933 327.604 68.5759C327.68 68.3543 327.756 68.1327 327.846 67.9342C326.773 68.2 325.691 68.4461 324.609 68.6923L324.609 68.6924L324.609 68.6925L324.608 68.6926L324.608 68.6927L324.607 68.6928L324.607 68.6928L324.607 68.6929L324.606 68.693L324.606 68.6931L324.606 68.6932C322.119 69.2589 319.631 69.8249 317.253 70.6292C313.986 71.7312 310.804 73.0174 307.623 74.3032L307.622 74.3035L307.621 74.3038L307.62 74.3041L307.62 74.3043L307.619 74.3046L307.618 74.3049L307.618 74.3052L307.617 74.3054L307.616 74.3057L307.616 74.306C306.239 74.8626 304.862 75.4191 303.478 75.9605L304.932 72.9308L331.294 63.0463L331.336 62.9871L334.717 62.1928C335.174 63.2822 335.613 64.3325 336.047 65.3722C336.997 67.6455 337.926 69.8681 338.977 72.3373C338.4 72.576 337.835 72.8735 337.268 73.1721C336.019 73.8299 334.76 74.4928 333.345 74.5431C326.879 74.7821 321.99 77.8353 317.255 81.4044C315.829 82.4759 314.217 83.2801 312.603 84.0848C311.801 84.4847 310.999 84.8847 310.22 85.3178C308.648 86.1929 307.091 87.0939 305.535 87.9948C299.978 91.2111 294.424 94.4262 288.186 96.4583C286.666 96.9536 285.375 97.9413 284.079 98.9328C283.109 99.6745 282.137 100.418 281.064 100.96C275.387 103.824 269.655 106.585 263.922 109.347L263.917 109.349C261.699 110.418 259.481 111.486 257.266 112.561C255.535 115.472 252.737 116.751 249.926 118.036C247.871 118.975 245.81 119.917 244.153 121.503C242.7 122.892 240.729 123.6 238.749 124.311C237.671 124.698 236.591 125.086 235.59 125.586C233.709 126.521 231.857 127.51 230.005 128.5L230.005 128.5L230.004 128.5L230.004 128.501L230.003 128.501L230.003 128.501C227.12 130.042 224.237 131.583 221.246 132.916C219.28 133.795 217.194 134.446 215.108 135.097C213.227 135.685 211.345 136.272 209.55 137.027C207.744 137.783 206.127 138.921 204.517 140.054L204.516 140.054L204.516 140.055L204.515 140.055L204.515 140.056L204.514 140.056L204.514 140.056L204.513 140.057C204.042 140.388 203.571 140.72 203.096 141.041C202.528 141.433 202.019 141.895 201.51 142.357C200.217 143.531 198.931 144.699 196.723 144.68C195.465 144.67 194.71 145.578 193.909 146.541C193.067 147.555 192.173 148.63 190.587 148.76C188.622 148.919 186.908 149.956 185.193 150.993C184.439 151.45 183.684 151.906 182.909 152.287C182.641 152.42 182.351 152.529 182.061 152.638C180.753 153.129 179.452 153.617 180.262 156.263C180.38 156.646 179.229 157.272 178.573 157.62C176.936 158.48 175.277 159.303 173.619 160.126C173.004 160.43 172.39 160.735 171.778 161.041L175.707 156.832L174.998 155.772L164.735 161.159L164.736 161.159L174.985 155.78L175.694 156.841L171.765 161.049L167.084 163.366L167.083 163.366C165.361 164.005 163.672 164.701 161.981 165.397C159.303 166.501 156.62 167.606 153.801 168.488C150.738 169.448 148.106 171.4 145.473 173.353C144.242 174.266 143.011 175.179 141.735 175.992C137.044 178.946 132.319 181.848 127.558 184.683C126.726 185.122 125.732 185.236 124.696 185.011C121.272 184.247 118.751 185.64 116.584 187.48C110.136 192.943 103.802 198.588 97.5297 204.29C93.5924 207.868 92.6717 207.582 89.6811 201.205L91.0549 195.974L85.9791 199.203L80.8141 192.395C81.015 192.189 81.2388 191.952 81.4815 191.694C82.1243 191.012 82.9001 190.189 83.7354 189.443C86.2465 187.198 88.7703 184.972 91.2958 182.744C93.5862 180.723 95.878 178.701 98.1628 176.664C100.213 174.83 102.035 172.881 101.87 169.111C101.815 167.872 102.555 166.75 103.215 165.747C103.29 165.634 103.364 165.522 103.435 165.412C104.248 164.15 105.148 162.974 106.048 161.798C106.442 161.283 106.836 160.768 107.222 160.247C107.326 160.305 107.443 160.389 107.559 160.472C107.805 160.647 108.05 160.822 108.175 160.765L108.383 160.673C113.549 158.385 118.713 156.098 120.147 149.116C120.317 148.29 120.71 147.582 121.103 146.874C121.256 146.598 121.41 146.322 121.55 146.039C123.043 148.035 124.351 148.313 125.922 147.062C127.802 145.565 129.738 144.147 131.674 142.729C133.685 141.256 135.696 139.782 137.644 138.222C142.756 134.118 147.78 129.892 152.717 125.545C153.432 124.912 153.868 123.919 154.305 122.923C154.509 122.459 154.713 121.995 154.945 121.566L154.894 119.677L163.778 111.858C163.94 112.006 164.101 112.153 164.263 112.299L164.263 112.3L164.264 112.3L164.419 112.441C164.529 112.541 164.639 112.641 164.749 112.742L162.688 117.422C171.41 108.447 182.436 102.116 193.482 95.7744C194.632 95.1142 195.782 94.4538 196.93 93.7903C207.933 87.4274 219.095 81.3135 230.471 75.601C235.352 73.1536 240.382 70.9782 245.412 68.8029C250.036 66.8032 254.66 64.8036 259.166 62.593C263.164 60.6433 266.947 58.3044 270.73 55.9655C272.49 54.8773 274.25 53.7891 276.031 52.7401C276.652 52.3737 277.292 52.0388 277.933 51.7039C278.272 51.5266 278.611 51.3492 278.947 51.1672L292.878 42.7489L302.44 37.1857C301.624 40.4492 293.269 46.4501 288.501 48.2387L284.451 51.8081L284.427 51.8252C283.963 52.1529 283.568 52.4317 283.224 52.6591C283.575 52.4274 283.979 52.1423 284.455 51.806L284.458 51.8042C285.388 51.458 286.322 51.1156 287.255 50.7733L287.256 50.7731L287.256 50.773L287.256 50.7728L287.257 50.7727L287.257 50.7726L287.258 50.7724L287.258 50.7723C289.575 49.9226 291.892 49.0725 294.176 48.1611C295.396 47.6755 296.552 47.0629 297.706 46.451C298.1 46.2424 298.493 46.0338 298.889 45.8304L295.457 55.5594L291.134 59.1787C290.713 59.3908 290.296 59.6239 289.878 59.8578L289.878 59.8581L289.877 59.8584L289.877 59.8586L289.876 59.8589L289.876 59.8591L289.875 59.8594L289.875 59.8597C288.942 60.3815 288.001 60.9082 286.975 61.2192C285.841 61.5628 285.852 62.831 285.862 64.0774C285.875 65.5215 285.887 66.9363 284.118 66.8503C281.52 66.707 280.253 68.4621 278.96 70.2517L278.867 70.3804C277.358 70.9257 275.857 71.4903 274.356 72.0549L274.356 72.0552L274.355 72.0554C270.976 73.3268 267.595 74.5985 264.119 75.6505C260.57 76.7261 257.253 78.2546 253.937 79.7829C251.976 80.6868 250.014 81.5907 248.005 82.4008C247.686 82.5291 247.367 82.6571 247.047 82.7852C243.203 84.3264 239.331 85.8786 235.873 88.0788C228.363 92.8697 221.109 98.0719 213.864 103.274C207.524 107.83 201.274 112.518 195.115 117.337C193.39 118.693 191.84 120.293 190.293 121.89C189.575 122.631 188.858 123.371 188.125 124.086L188.97 125.265L198.877 120.04L214.05 112.056L213.234 114.587C209.571 117.1 205.69 119.266 201.805 121.435L201.804 121.435L201.804 121.435L201.804 121.435L201.803 121.436L201.803 121.436C195.759 124.809 189.707 128.187 184.454 132.883L186.491 133.051C186.501 133.065 186.511 133.079 186.521 133.092C188.269 132.005 190.014 130.92 191.785 129.878C199.049 125.655 206.321 121.438 213.614 117.263C214.355 116.839 215.184 116.564 216.013 116.289C216.399 116.161 216.786 116.033 217.163 115.889L217.163 115.89L237.697 104.523C237.484 104.859 237.273 105.197 237.063 105.536C235.26 108.427 233.458 111.319 230.432 112.83C229.662 113.19 228.892 113.55 228.123 113.91L228.116 113.913L228.109 113.916C225.025 115.361 221.94 116.805 218.82 118.179C218.362 118.385 217.781 118.357 217.2 118.328C216.939 118.315 216.677 118.302 216.427 118.31L216.427 118.31C215.468 118.811 214.508 119.31 213.548 119.81L213.544 119.812C211.605 120.82 209.665 121.828 207.733 122.853C207.403 123.026 207.047 123.174 206.689 123.322C205.84 123.673 204.988 124.026 204.481 124.726C202.049 128.05 198.465 129.392 194.884 130.733C192.532 131.613 190.182 132.494 188.159 133.934C188.009 134.028 187.751 133.962 187.492 133.897C187.373 133.866 187.254 133.836 187.145 133.821L187.13 133.807L187.107 133.785L178.787 139.529C182.697 140.37 184.772 139.409 186.816 138.186C187.142 137.991 187.468 137.795 187.794 137.599L187.795 137.598L187.796 137.597L187.797 137.597C190.049 136.239 192.318 134.872 194.824 134.052C196.558 133.479 198.409 133.13 200.256 132.781C203.037 132.256 205.808 131.733 208.15 130.453C209.863 129.519 211.619 128.65 213.378 127.779L213.378 127.779L213.379 127.779L213.379 127.778L213.38 127.778L213.381 127.778L213.381 127.777L213.382 127.777C218.988 125.002 224.612 122.218 228.887 117.333C229.244 117.046 229.645 116.823 230.08 116.669C230.29 117.481 230.465 118.165 230.834 119.622L235.027 115.19C233.121 115.931 231.65 115.236 230.45 112.867C233.471 111.374 235.265 108.491 237.059 105.609C237.277 105.259 237.495 104.908 237.715 104.56L243.525 101.907C243.936 101.864 244.372 101.862 244.807 101.86C245.739 101.856 246.67 101.852 247.359 101.444C258.168 95.0054 268.921 88.482 279.673 81.9589L279.677 81.9566C280.968 81.1735 282.259 80.3904 283.55 79.6075ZM121.476 145.811C121.509 145.835 121.542 145.859 121.576 145.883L121.624 145.886C121.6 145.938 121.575 145.989 121.55 146.039C121.513 145.99 121.476 145.94 121.439 145.889L121.4 145.887L121.476 145.811ZM121.476 145.811C119.783 144.597 118.621 144.779 118.004 146.6C117.616 147.902 117.135 149.144 116.566 150.317C115.025 153.215 112.32 152.542 109.619 151.869C108.951 151.703 108.283 151.536 107.633 151.424C107.339 150.52 107.045 149.622 106.748 148.72C107.324 148.439 107.903 148.161 108.481 147.883L108.482 147.883L108.482 147.883L108.483 147.882L108.484 147.882L108.484 147.882L108.485 147.882L108.485 147.881L108.486 147.881L108.487 147.881L108.487 147.88L108.488 147.88L108.489 147.88C109.721 147.288 110.953 146.697 112.164 146.066C115.116 144.525 117.73 142.475 120.35 140.42C123.711 137.785 127.08 135.143 131.179 133.562C134.097 132.433 136.581 130.417 139.067 128.399C140.318 127.383 141.57 126.367 142.878 125.462C143.343 125.144 143.968 125.069 144.593 124.994C144.85 124.963 145.106 124.932 145.352 124.885C147.863 122.008 150.622 119.565 154.873 119.701L154.925 121.59L145.144 126.256C144.509 126.931 143.876 127.609 143.244 128.286C141.158 130.519 139.074 132.751 136.899 134.873C136.777 134.992 136.655 135.113 136.532 135.234L136.461 135.304L136.461 135.304L136.46 135.305L136.46 135.305C135.018 136.729 133.523 138.204 131.693 138.885C127.699 140.369 124.443 142.834 121.476 145.811ZM158.477 127.85L158.48 127.853C158.564 127.961 158.647 128.068 158.73 128.176C160.676 127.023 162.638 125.897 164.6 124.771L164.601 124.77L164.601 124.77L164.601 124.77L164.602 124.77L164.602 124.769C168.939 122.28 173.275 119.791 177.432 117.024C182.508 113.643 187.5 110.133 192.493 106.624C197.524 103.087 202.556 99.5499 207.671 96.1452C210.558 94.2221 213.644 92.6095 216.729 90.9965C218.582 90.0283 220.434 89.06 222.244 88.0243C225.636 86.0816 228.987 84.0704 232.58 81.9142C234.29 80.8881 236.054 79.8293 237.903 78.7293C233.91 77.611 231.327 77.6321 229.115 79.458C227.262 80.9392 225.285 82.2447 223.2 83.3655C220.525 84.8514 217.812 86.2757 215.098 87.6999C209.92 90.418 204.742 93.136 199.836 96.2818C189.798 102.723 180.119 109.745 170.499 116.827C167.497 119.031 164.722 121.591 161.948 124.151C160.715 125.288 159.483 126.426 158.231 127.531C158.267 127.579 158.304 127.627 158.341 127.675C158.386 127.733 158.432 127.791 158.477 127.85ZM157.937 136.023C158.878 135.438 159.962 135.058 161.245 134.962C161.245 134.962 161.245 134.962 161.245 134.962L161.252 134.958C159.964 135.056 158.878 135.438 157.937 136.023ZM170.568 139.863C170.796 140.273 171.024 140.683 171.249 141.096C174.631 140.389 177.317 138.16 178.785 134.842L170.568 139.863ZM214.077 112.1L213.261 114.63C220.69 110.722 228.132 106.832 235.584 102.962C237.641 101.89 239.718 100.854 241.796 99.8178C242.839 99.2977 243.881 98.7775 244.922 98.2527C250.076 95.4353 255.223 92.6084 260.363 89.772C263.05 88.2918 265.736 86.8085 268.423 85.3251L268.424 85.3243C273.244 82.6629 278.064 80.0013 282.893 77.3565C283.344 77.2111 283.831 77.1494 284.336 77.1733C286.169 76.233 288.004 75.2962 289.84 74.3595C293.526 72.4785 297.212 70.5973 300.878 68.686C312.857 62.4125 324.841 56.1476 336.831 49.8914L336.836 49.8689C338.145 49.3686 339.456 48.8794 340.765 48.3904L340.766 48.3902L340.766 48.3901L340.766 48.3899L340.767 48.3897L340.767 48.3896L340.768 48.3894L340.768 48.3892L340.768 48.3891L340.769 48.3889L340.769 48.3888L340.77 48.3886C344.059 47.1604 347.346 45.9334 350.608 44.5349C352.562 43.6971 354.642 43.1116 356.745 42.5197C359.558 41.7279 362.412 40.9245 365.061 39.4897C364.708 39.1589 364.435 38.8782 364.225 38.6609L364.223 38.6596L364.223 38.6593C363.893 38.3188 363.714 38.1347 363.611 38.1583C355.132 39.9659 346.659 41.7857 338.192 43.6178L338.186 43.6412C336.46 44.3805 334.729 45.1107 332.998 45.8409C328.182 47.8729 323.367 49.9042 318.651 52.1266C314.282 54.1894 310.008 56.4305 305.734 58.6716L305.733 58.6718L305.733 58.672L305.732 58.6721L305.732 58.6723L305.732 58.6725L305.731 58.6727L305.731 58.6728C303.854 59.6568 301.978 60.6408 300.093 61.6098L300.09 61.6111L302.514 57.0057C300.029 56.6003 298.54 57.1844 297.931 59.2561C297.689 60.0692 297.54 60.9391 297.39 61.8087C297.326 62.1837 297.262 62.5587 297.19 62.9289L290.575 66.539L290.572 66.5407L292.248 62.7184L289.641 61.4043L291.135 59.202C290.71 59.4168 290.294 59.6495 289.878 59.8821L289.877 59.8823C288.946 60.4033 288.015 60.924 286.976 61.2425C285.842 61.5862 285.853 62.8544 285.863 64.1008C285.876 65.5448 285.888 66.9597 284.119 66.8737C281.514 66.7423 280.239 68.5065 278.939 70.3064L278.868 70.4038L277.416 73.4505L277.419 73.4484C277.3 76.9562 275.342 78.3545 272.866 79.6841C257.369 87.9791 241.953 96.4144 226.536 104.85L226.535 104.85L226.521 104.858C222.999 106.786 219.476 108.713 215.952 110.639C215.29 111.072 214.664 111.56 214.077 112.1ZM298.893 45.8518L295.461 55.5808C298.151 55.6672 299.97 54.9863 299.222 51.0865C299.028 50.0546 299.907 48.7335 300.709 48.1744C303.167 46.4115 305.765 44.8618 308.488 43.5347C315.169 40.3962 321.885 37.3275 328.601 34.2594L328.603 34.2586C332.038 32.6893 335.472 31.12 338.902 29.5417C339.172 29.4165 339.464 29.3203 339.763 29.2223C340.934 28.8373 342.192 28.4243 342.484 26.113C342.061 26.1559 341.688 26.1732 341.354 26.1886C340.74 26.217 340.259 26.2393 339.845 26.4033C338.035 27.1054 336.212 27.7852 334.389 28.4651C329.601 30.2509 324.811 32.0373 320.243 34.2301C315.141 36.6672 310.228 39.4555 305.316 42.2436C303.18 43.456 301.045 44.6684 298.893 45.8518Z" fill="#F28C22"/>
<path fill-rule="evenodd" clip-rule="evenodd" d="M454.194 713.258C453.807 713.78 453.413 714.295 453.02 714.809C452.119 715.986 451.219 717.162 450.407 718.423C450.335 718.534 450.262 718.646 450.187 718.759C449.526 719.762 448.786 720.884 448.841 722.123C449.006 725.892 447.185 727.842 445.134 729.675C442.778 731.779 440.411 733.867 438.042 735.957L438.041 735.957L438.04 735.958C435.594 738.116 433.146 740.276 430.707 742.455C429.843 743.227 429.033 744.087 428.38 744.781C428.163 745.011 427.964 745.222 427.786 745.406L432.95 752.214L428.105 758.518L423.647 756.452C423.015 753.573 422.495 751.219 421.899 748.533C423.206 747.39 424.522 746.254 425.838 745.117C433.06 738.881 440.308 732.623 446.421 724.931L437.386 730.55C436.722 730.176 435.77 729.68 434.884 729.218L434.784 729.166L421.743 737.151C420.829 732.675 422.567 730.914 424.19 729.269C424.627 728.827 425.054 728.393 425.42 727.918C426.692 726.261 428.119 724.766 429.748 723.06C430.525 722.246 431.348 721.384 432.222 720.434L428.915 721.032C435.387 712.011 443.836 705.628 452.467 699.179C452.736 699.724 452.976 700.214 453.204 700.679L453.207 700.684C453.385 701.048 453.556 701.397 453.728 701.745C454.025 702.647 454.319 703.545 454.612 704.449C454.731 704.973 454.872 705.507 455.013 706.042L455.013 706.043L455.014 706.044C455.738 708.786 456.468 711.552 454.194 713.258ZM630.55 632.607C635.396 633.497 639.948 632.565 643.502 629.955C645.257 628.718 647.278 627.882 649.3 627.045C650.182 626.681 651.064 626.316 651.924 625.918L650.47 628.947L650.174 629.14L649.689 629.456C648.892 629.976 648.092 630.497 647.281 631.015L647.038 631.171C643.149 633.665 639.257 636.16 636.817 640.525C631.26 640.293 627.432 643.122 623.49 646.036C622.71 646.613 621.925 647.193 621.121 647.754C624.207 650.787 626.194 650.83 628.15 649.091C630.074 647.383 632.105 645.825 634.142 644.263C634.996 643.608 635.85 642.953 636.699 642.285C637.543 641.874 638.388 641.464 639.234 641.054C640.925 640.232 642.617 639.411 644.303 638.582C645.959 637.771 647.62 636.967 649.28 636.164C653.467 634.138 657.655 632.112 661.762 629.957C665.63 627.926 669.351 625.632 673.07 623.34C673.343 623.172 673.617 623.003 673.89 622.834C674.25 622.611 674.427 622.093 674.604 621.576C674.68 621.354 674.756 621.133 674.846 620.934C673.773 621.2 672.691 621.446 671.609 621.692L671.608 621.693L671.607 621.693L671.606 621.693C669.119 622.259 666.631 622.825 664.253 623.629C660.986 624.731 657.804 626.017 654.623 627.303L654.622 627.304L654.62 627.304L654.619 627.305L654.618 627.305L654.616 627.306C653.239 627.862 651.862 628.419 650.478 628.96L651.932 625.931L678.294 616.046L678.336 615.987L681.717 615.193C682.174 616.282 682.613 617.332 683.047 618.372C683.997 620.645 684.926 622.868 685.977 625.337C685.4 625.576 684.835 625.874 684.268 626.172C683.019 626.83 681.76 627.493 680.345 627.543C673.879 627.782 668.99 630.835 664.255 634.404C662.829 635.476 661.217 636.28 659.603 637.085C658.801 637.485 657.999 637.885 657.22 638.318C655.648 639.193 654.091 640.094 652.535 640.995C646.978 644.211 641.424 647.426 635.186 649.458C633.666 649.954 632.375 650.941 631.079 651.933C630.109 652.675 629.137 653.418 628.064 653.96C622.387 656.824 616.655 659.585 610.922 662.347L610.917 662.349C608.699 663.418 606.481 664.486 604.266 665.561C602.535 668.472 599.737 669.751 596.926 671.036C594.871 671.975 592.81 672.917 591.153 674.503C589.7 675.892 587.729 676.6 585.749 677.311C584.671 677.698 583.591 678.086 582.59 678.586C580.709 679.521 578.857 680.51 577.005 681.5L577.004 681.5L577.003 681.501C574.12 683.042 571.237 684.583 568.246 685.916C566.28 686.795 564.194 687.446 562.108 688.097C560.227 688.685 558.345 689.272 556.55 690.027C554.744 690.783 553.127 691.921 551.517 693.054L551.516 693.055L551.515 693.056L551.514 693.056C551.042 693.388 550.571 693.72 550.096 694.041C549.528 694.433 549.019 694.895 548.51 695.357C547.217 696.531 545.931 697.699 543.723 697.68C542.465 697.67 541.71 698.578 540.909 699.541C540.067 700.555 539.173 701.63 537.587 701.76C535.622 701.919 533.908 702.956 532.193 703.993C531.439 704.45 530.684 704.906 529.909 705.287C529.641 705.42 529.351 705.529 529.061 705.638C527.753 706.129 526.452 706.617 527.262 709.263C527.38 709.646 526.229 710.272 525.573 710.62C523.936 711.48 522.277 712.303 520.619 713.126C520.004 713.43 519.39 713.735 518.778 714.041L522.707 709.832L521.998 708.772L511.735 714.159L521.985 708.78L522.694 709.841L518.765 714.049L514.084 716.366C512.362 717.005 510.672 717.701 508.981 718.397C506.303 719.501 503.62 720.606 500.801 721.488C497.738 722.448 495.106 724.4 492.473 726.353C491.242 727.266 490.011 728.179 488.735 728.992C484.044 731.946 479.319 734.848 474.558 737.683C473.726 738.122 472.732 738.236 471.696 738.011C468.272 737.247 465.751 738.64 463.584 740.48C457.136 745.943 450.802 751.588 444.53 757.29C440.592 760.868 439.672 760.582 436.681 754.205L438.055 748.974L432.979 752.203L427.814 745.395C428.015 745.189 428.239 744.952 428.481 744.694C429.124 744.012 429.9 743.189 430.735 742.443C433.247 740.198 435.77 737.972 438.296 735.744C440.586 733.723 442.878 731.701 445.163 729.664C447.213 727.83 449.035 725.881 448.87 722.111C448.815 720.872 449.555 719.75 450.215 718.747C450.29 718.634 450.364 718.522 450.435 718.412C451.248 717.15 452.148 715.974 453.048 714.798C453.442 714.283 453.836 713.768 454.222 713.247C454.326 713.305 454.443 713.389 454.559 713.472C454.805 713.647 455.05 713.822 455.175 713.765L455.383 713.673C460.549 711.385 465.713 709.098 467.147 702.116C467.317 701.29 467.71 700.582 468.103 699.874C468.256 699.598 468.41 699.322 468.55 699.039C470.043 701.035 471.351 701.313 472.922 700.062C474.802 698.565 476.738 697.147 478.674 695.729C480.685 694.256 482.696 692.782 484.644 691.222C489.756 687.118 494.78 682.892 499.717 678.545C500.432 677.912 500.868 676.919 501.305 675.923C501.509 675.459 501.713 674.995 501.945 674.566L501.894 672.677L510.778 664.858C510.94 665.006 511.101 665.153 511.263 665.299L511.264 665.3L511.419 665.441C511.529 665.541 511.639 665.641 511.749 665.742L509.688 670.422C518.41 661.447 529.436 655.116 540.482 648.774C541.632 648.114 542.782 647.454 543.93 646.79C554.933 640.427 566.095 634.314 577.471 628.601C582.352 626.154 587.382 623.978 592.412 621.803C597.036 619.803 601.66 617.804 606.166 615.593C610.164 613.643 613.947 611.304 617.73 608.965C619.49 607.877 621.25 606.789 623.031 605.74C623.652 605.374 624.292 605.039 624.933 604.704C625.272 604.527 625.611 604.349 625.947 604.167L639.878 595.749L649.44 590.186C648.624 593.449 640.269 599.45 635.501 601.239L631.451 604.808L631.427 604.825C630.963 605.153 630.568 605.432 630.224 605.659C630.575 605.427 630.979 605.142 631.455 604.806L631.458 604.804C632.388 604.458 633.322 604.116 634.255 603.773L634.256 603.773L634.258 603.772C636.574 602.923 638.892 602.073 641.176 601.161C642.396 600.676 643.552 600.063 644.706 599.451C645.1 599.242 645.493 599.034 645.889 598.83L642.457 608.559L638.134 612.179C637.713 612.391 637.296 612.624 636.878 612.858L636.877 612.858L636.876 612.859L636.875 612.859C635.943 613.381 635.001 613.908 633.975 614.219C632.841 614.563 632.852 615.831 632.862 617.077C632.875 618.521 632.887 619.936 631.118 619.85C628.52 619.707 627.253 621.462 625.96 623.252L625.867 623.38C624.358 623.926 622.857 624.49 621.356 625.055L621.355 625.055C617.976 626.327 614.595 627.598 611.119 628.651C607.57 629.726 604.253 631.255 600.937 632.783C598.976 633.687 597.014 634.591 595.005 635.401C594.686 635.529 594.367 635.657 594.047 635.785C590.203 637.326 586.331 638.879 582.873 641.079C575.363 645.87 568.109 651.072 560.864 656.274C554.524 660.83 548.274 665.518 542.115 670.337C540.39 671.693 538.84 673.293 537.293 674.89C536.575 675.631 535.858 676.371 535.125 677.086L535.97 678.265L545.877 673.04L561.05 665.056L560.234 667.587C556.571 670.1 552.69 672.266 548.805 674.435L548.804 674.435C542.76 677.808 536.707 681.187 531.454 685.883L533.491 686.051C533.501 686.065 533.511 686.079 533.521 686.092C535.269 685.005 537.014 683.92 538.785 682.878C546.049 678.655 553.321 674.438 560.614 670.263C561.355 669.839 562.184 669.564 563.013 669.289C563.399 669.161 563.786 669.033 564.163 668.889L584.697 657.523C584.484 657.859 584.273 658.197 584.063 658.536C582.26 661.427 580.458 664.319 577.432 665.83C576.662 666.19 575.892 666.55 575.123 666.91L575.116 666.913L575.109 666.916C572.025 668.36 568.94 669.805 565.82 671.179C565.362 671.385 564.781 671.357 564.2 671.328C563.939 671.315 563.677 671.302 563.427 671.31C562.468 671.812 561.508 672.31 560.548 672.81L560.544 672.812C558.605 673.82 556.665 674.828 554.733 675.853C554.403 676.026 554.047 676.174 553.689 676.322C552.84 676.673 551.988 677.026 551.481 677.726C549.049 681.05 545.465 682.392 541.884 683.733C539.532 684.613 537.182 685.494 535.159 686.934C535.009 687.028 534.751 686.962 534.492 686.897C534.373 686.866 534.254 686.836 534.145 686.821L534.13 686.807L534.107 686.785L525.787 692.529C529.697 693.37 531.772 692.409 533.816 691.186C534.142 690.991 534.468 690.795 534.794 690.599L534.795 690.598L534.796 690.597L534.797 690.597C537.049 689.239 539.318 687.872 541.824 687.052C543.558 686.479 545.409 686.13 547.256 685.781C550.037 685.256 552.808 684.733 555.15 683.453C556.863 682.519 558.619 681.65 560.378 680.779L560.379 680.779L560.38 680.778L560.381 680.777C565.988 678.002 571.612 675.218 575.887 670.333C576.244 670.046 576.645 669.823 577.08 669.669C577.29 670.481 577.465 671.165 577.834 672.622L582.027 668.19C580.121 668.931 578.65 668.236 577.45 665.867C580.471 664.374 582.265 661.491 584.059 658.609C584.277 658.259 584.495 657.908 584.715 657.56L590.525 654.907C590.936 654.864 591.372 654.862 591.807 654.86C592.739 654.856 593.67 654.852 594.359 654.444C605.168 648.005 615.921 641.482 626.673 634.959L626.677 634.957C627.968 634.174 629.259 633.39 630.55 632.607ZM468.476 698.811C468.509 698.835 468.542 698.859 468.576 698.883L468.624 698.886C468.6 698.938 468.575 698.989 468.55 699.039C468.513 698.99 468.476 698.94 468.439 698.889L468.4 698.887L468.476 698.811ZM468.476 698.811C466.783 697.597 465.621 697.779 465.004 699.6C464.616 700.902 464.135 702.144 463.566 703.317C462.025 706.215 459.32 705.542 456.619 704.869C455.951 704.703 455.283 704.536 454.633 704.424C454.339 703.52 454.045 702.622 453.748 701.72C454.324 701.439 454.903 701.161 455.481 700.883L455.482 700.883L455.484 700.882L455.485 700.882L455.486 700.881L455.487 700.88L455.489 700.88C456.721 700.288 457.953 699.697 459.164 699.066C462.116 697.525 464.73 695.475 467.35 693.42C470.711 690.785 474.08 688.143 478.179 686.562C481.097 685.433 483.581 683.417 486.067 681.399C487.318 680.383 488.57 679.367 489.878 678.462C490.343 678.144 490.968 678.069 491.593 677.994C491.85 677.963 492.106 677.932 492.352 677.885C494.863 675.008 497.622 672.565 501.873 672.701L501.925 674.59L492.144 679.256C491.509 679.931 490.876 680.609 490.244 681.286C488.158 683.519 486.074 685.751 483.899 687.873C483.777 687.992 483.655 688.113 483.532 688.234L483.461 688.304L483.46 688.305C482.019 689.728 480.523 691.204 478.693 691.885C474.699 693.369 471.443 695.834 468.476 698.811ZM505.477 680.85L505.48 680.853C505.564 680.961 505.647 681.068 505.73 681.176C507.676 680.023 509.638 678.897 511.6 677.771L511.601 677.77C515.938 675.281 520.275 672.791 524.432 670.024C529.508 666.643 534.5 663.133 539.493 659.624C544.524 656.087 549.556 652.55 554.671 649.145C557.558 647.222 560.644 645.609 563.729 643.996C565.582 643.028 567.434 642.06 569.244 641.024C572.636 639.082 575.987 637.07 579.58 634.914C581.289 633.888 583.054 632.829 584.903 631.729C580.91 630.611 578.327 630.632 576.115 632.458C574.262 633.939 572.285 635.245 570.2 636.366C567.525 637.851 564.812 639.276 562.098 640.7C556.92 643.418 551.742 646.136 546.836 649.282C536.798 655.723 527.119 662.745 517.499 669.827C514.497 672.031 511.722 674.591 508.948 677.151C507.715 678.288 506.483 679.426 505.231 680.531C505.267 680.579 505.304 680.627 505.341 680.675C505.386 680.733 505.432 680.791 505.477 680.85ZM504.937 689.023C505.878 688.438 506.962 688.058 508.245 687.962L508.252 687.958C506.964 688.056 505.878 688.438 504.937 689.023ZM517.568 692.863C517.796 693.273 518.024 693.683 518.249 694.096C521.631 693.389 524.317 691.16 525.785 687.842L517.568 692.863ZM561.077 665.1L560.261 667.63C567.69 663.722 575.132 659.832 582.584 655.962C584.641 654.89 586.718 653.854 588.796 652.818C589.839 652.298 590.881 651.777 591.922 651.253C597.076 648.435 602.223 645.608 607.363 642.772C610.05 641.292 612.736 639.808 615.423 638.325L615.424 638.324C620.244 635.663 625.064 633.001 629.893 630.357C630.344 630.211 630.831 630.149 631.336 630.173C633.169 629.233 635.004 628.296 636.84 627.359C640.526 625.479 644.212 623.597 647.878 621.686C659.857 615.413 671.841 609.148 683.831 602.891L683.836 602.869C685.145 602.369 686.456 601.879 687.765 601.39L687.766 601.39L687.768 601.389L687.769 601.389C691.059 600.161 694.346 598.933 697.608 597.535C699.562 596.697 701.642 596.112 703.745 595.52C706.558 594.728 709.412 593.924 712.061 592.49C711.708 592.159 711.435 591.878 711.225 591.661L711.223 591.66C710.893 591.319 710.714 591.135 710.611 591.158C702.132 592.966 693.659 594.786 685.192 596.618L685.186 596.641C683.46 597.38 681.729 598.111 679.998 598.841C675.182 600.873 670.367 602.904 665.651 605.127C661.282 607.189 657.008 609.431 652.734 611.672L652.732 611.672L652.731 611.673C650.855 612.657 648.978 613.641 647.093 614.61L647.09 614.611L649.514 610.006C647.029 609.6 645.54 610.184 644.931 612.256C644.689 613.069 644.54 613.939 644.39 614.809C644.326 615.184 644.262 615.559 644.19 615.929L637.575 619.539L637.572 619.541L639.248 615.718L636.641 614.404L638.135 612.202C637.71 612.417 637.294 612.649 636.878 612.882C635.947 613.403 635.015 613.924 633.976 614.243C632.842 614.586 632.853 615.854 632.863 617.101C632.876 618.545 632.888 619.96 631.119 619.874C628.514 619.742 627.239 621.506 625.939 623.306L625.868 623.404L624.416 626.45L624.419 626.448C624.3 629.956 622.342 631.355 619.866 632.684C604.369 640.979 588.953 649.414 573.536 657.85L573.521 657.858C569.999 659.786 566.476 661.713 562.952 663.639C562.29 664.072 561.664 664.56 561.077 665.1ZM645.893 598.852L642.461 608.581C645.151 608.667 646.969 607.986 646.222 604.086C646.028 603.055 646.907 601.734 647.709 601.174C650.167 599.411 652.765 597.862 655.488 596.535C662.169 593.396 668.885 590.328 675.601 587.259L675.603 587.259C679.038 585.689 682.472 584.12 685.902 582.542C686.172 582.416 686.464 582.32 686.763 582.222C687.934 581.837 689.192 581.424 689.484 579.113C689.061 579.156 688.688 579.173 688.354 579.189C687.74 579.217 687.259 579.239 686.845 579.403C685.035 580.105 683.212 580.785 681.389 581.465C676.601 583.251 671.811 585.037 667.243 587.23C662.141 589.667 657.228 592.456 652.316 595.244C650.18 596.456 648.045 597.668 645.893 598.852Z" fill="#F28C22"/>
<defs>
<linearGradient id="paint0_linear_180_673" x1="245" y1="808" x2="245" y2="92" gradientUnits="userSpaceOnUse">
<stop offset="0.038685" stop-color="#2269F2"/>
<stop offset="0.965779" stop-color="#7FD6FC"/>
</linearGradient>
</defs>
</svg>
