<svg width="50" height="50" viewBox="0 0 50 50" fill="none" xmlns="http://www.w3.org/2000/svg">
<rect x="6.41034" y="10" width="37.1795" height="31.25" fill="#FFFAF3"/>
<path d="M24.5746 0H25.5955C31.17 0 36.55 2.12283 41.7355 6.3685C47.2452 11.9592 50 17.8253 50 23.9669V26.3491C50 29.9141 48.6226 34.1031 45.8678 38.9159C42.4648 43.7773 37.8302 47.1317 31.964 48.9791C29.2416 49.6597 26.9729 50 25.158 50H25.0122C18.2223 50 12.1536 47.3424 6.80603 42.0272C2.26868 36.8417 0 31.17 0 25.0122C0 18.433 2.56847 12.4129 7.7054 6.95187C13.053 2.31729 18.6761 0 24.5746 0ZM26.0574 20.7098V21.9008C26.0574 22.0953 25.952 22.1925 25.7414 22.1925C22.6462 21.7712 19.9887 20.6855 17.7686 18.9353L15.7025 17.0151H15.5323C15.5323 17.1771 15.3379 17.5741 14.949 18.2061V19.9806C15.0786 20.9853 15.7673 22.1196 17.0151 23.3836V23.5294C16.3345 23.5294 15.6458 23.335 14.949 22.946V23.0919C14.949 24.9878 16.1805 26.6164 18.6437 27.9776L18.352 28.1235H17.6228L16.8692 27.9776V28.2693C18.0036 30.3435 19.4377 31.3807 21.1716 31.3807V31.8182C19.227 33.0011 17.2987 33.5926 15.3865 33.5926H14.5114V33.8843C17.2987 35.1645 19.7132 35.8046 21.755 35.8046C26.0331 35.8046 29.6791 34.0788 32.6932 30.6271C34.8647 27.613 35.9504 24.7529 35.9504 22.0467V21.0258C37.5223 19.5187 38.3163 18.6761 38.3325 18.4978V18.352C37.7654 18.6437 36.9713 18.8948 35.9504 19.1055L35.8046 18.7895C36.7282 18.2547 37.417 17.5174 37.8707 16.5775V16.4317H37.7248C36.2664 17.1285 35.3832 17.4769 35.0754 17.4769H34.6378C33.5521 16.5856 32.5636 16.0914 31.6723 15.9942H30.4813C28.8284 15.9942 27.4996 16.9259 26.4949 18.7895C26.2032 19.2756 26.0574 19.9157 26.0574 20.7098Z" fill="#2269F2"/>
</svg>
